<?xml version="1.0" standalone="no"?>
<!DOCTYPE svg PUBLIC "-//W3C//DTD SVG 1.1//EN" "http://www.w3.org/Graphics/SVG/1.1/DTD/svg11.dtd" >
<svg xmlns="http://www.w3.org/2000/svg" xmlns:xlink="http://www.w3.org/1999/xlink" version="1.1">
<metadata></metadata>
<defs>
<font id="squeetch_sanssans_serif" horiz-adv-x="350" >
<font-face units-per-em="2048" ascent="1536" descent="-512" />
<missing-glyph horiz-adv-x="718" />
<glyph horiz-adv-x="0" />
<glyph horiz-adv-x="682" />
<glyph unicode=" "  horiz-adv-x="718" />
<glyph unicode="&#x09;" horiz-adv-x="718" />
<glyph unicode="&#xa0;" horiz-adv-x="718" />
<glyph unicode="!" horiz-adv-x="321" d="M20 -125q0 48 29.5 78.5t79.5 30.5q49 0 78 -32.5t29 -76.5q0 -43 -28.5 -74.5t-76.5 -31.5q-49 0 -80 29.5t-31 76.5zM23 59v1301l223 176v-1298z" />
<glyph unicode="&#x26;" horiz-adv-x="1296" d="M47 539q0 84 28.5 162t66.5 128.5t89 95.5t81.5 64.5t58.5 34.5q-49 111 -49 215q0 83 50.5 152t124.5 104.5t150 34.5q112 -3 205 -74v-250q-88 101 -156 101q-63 0 -96 -39.5t-33 -81.5q0 -40 14 -81t30.5 -70.5t60.5 -100.5q83 -128 362 -541q41 80 41 180 q0 64 -31 146l220 65q24 -76 24 -202q0 -223 -127 -379l152 -223h-244l-61 90q-159 -95 -351 -95q-166 0 -304 68.5t-222 199t-84 296.5zM270 545q0 -86 35 -156t92 -113.5t126.5 -66.5t142.5 -23q119 0 223 58l-406 594q-14 -4 -33.5 -12.5t-53.5 -31.5t-60 -53.5t-46 -82 t-20 -113.5z" />
<glyph unicode="'" d="M59 1350q-5 45 21 82.5t76 44.5q51 6 87 -21t42 -78v-6h2l6 -78l-168 -198l-25 178q-35 27 -41 76z" />
<glyph unicode="," d="M59 23q-5 45 21 82.5t76 44.5q51 6 87 -21t42 -78v-6h2l6 -78l-168 -198l-25 178q-35 27 -41 76z" />
<glyph unicode="." d="M59 23q-5 45 21 82.5t76 44.5q51 6 87 -21t42 -78q6 -52 -20.5 -86.5t-78.5 -40.5q-52 -7 -86.5 22.5t-40.5 76.5z" />
<glyph unicode="/" horiz-adv-x="935" d="M-4 -29l668 1325l268 72l-666 -1335z" />
<glyph unicode="0" horiz-adv-x="925" d="M10 393v713q0 82 33.5 160t91.5 138t143 96t181 36q50 0 109 -14.5t121.5 -47t113 -77.5t83 -113t32.5 -147l2 -332v-406q0 -82 -37.5 -159.5t-99.5 -134t-145 -91t-171 -34.5q-120 0 -223.5 50.5t-168.5 146.5t-65 216zM203 459q0 -145 72.5 -236.5t183.5 -91.5 q118 0 187 96.5t69 235.5v319q-2 46 -2 265q0 157 -72 237t-186 80q-54 0 -97.5 -19t-72 -50.5t-47.5 -76t-27 -93t-8 -103.5v-563z" />
<glyph unicode="1" horiz-adv-x="452" d="M31 1260l325 276v-1473l-182 -176v1373h-143z" />
<glyph unicode="2" horiz-adv-x="1214" d="M45 0l664 825q43 60 63.5 119t19.5 100.5t-8 75t-16 50.5l-10 16h2q-58 86 -158 108q-57 12 -108 -1t-84.5 -43t-54.5 -65.5t-27 -70.5q-4 -30 -6 -67l-213 10q0 60 10 114q27 125 112.5 209.5t199 114t231.5 4.5q141 -30 242.5 -138t111.5 -255q19 -189 -131 -389 q-126 -160 -215 -279l-193 -256h522l175 -182h-1129z" />
<glyph unicode="3" horiz-adv-x="1114" d="M41 522q0 128 50.5 233.5t139.5 178.5l134 -176q-115 -90 -115 -248q0 -60 20.5 -115.5t58.5 -100t100 -71t138 -26.5q63 0 114.5 20.5t85 53.5t56.5 76.5t33 88.5t10 90q0 111 -81.5 195t-188.5 104v150q81 18 125.5 70.5t44.5 115.5q0 66 -53 116t-117 50 q-70 0 -121 -48.5t-51 -127.5q0 -25 6 -33l-158 -24q-8 36 -8 80q0 145 98.5 240t227.5 95q84 0 161 -42t126 -117t49 -162q0 -71 -26.5 -141.5t-78.5 -120.5q252 -99 252 -383q0 -75 -17 -150t-55.5 -147t-95 -127t-142 -89t-188.5 -34q-130 0 -234.5 44t-168.5 118 t-97.5 167.5t-33.5 196.5z" />
<glyph unicode="4" horiz-adv-x="1202" d="M102 485v142l514 811l224 98v-909h82v-142h-82v-415l-164 -121v536h-574zM281 627h395v643z" />
<glyph unicode="5" horiz-adv-x="1181" d="M41 522q0 128 50.5 233.5t139.5 178.5l134 -176q-115 -90 -115 -248q0 -60 20.5 -115.5t58.5 -100t100 -71t138 -26.5q63 0 114.5 20.5t85 53.5t56.5 76.5t33 88.5t10 90q0 111 -81.5 195t-188.5 104l-80 9v696h580l-107 -189h-295v-354q379 -82 379 -444q0 -75 -17 -150 t-55.5 -147t-95 -127t-142 -89t-188.5 -34q-130 0 -234.5 44t-168.5 118t-97.5 167.5t-33.5 196.5z" />
<glyph unicode="6" horiz-adv-x="1165" d="M66 532q0 122 47.5 224.5t130.5 175.5l585 577l121 -133l-319 -319q92 -11 178.5 -54t152.5 -108.5t106 -155t40 -186.5q0 -76 -17 -151.5t-56 -148.5t-95.5 -128.5t-143 -90t-190.5 -34.5q-106 0 -195.5 29t-152.5 79.5t-107 118t-64.5 145t-20.5 160.5zM260 506 q0 -142 90 -241t254 -99q68 0 124 22t92.5 57t61.5 82t35.5 95.5t10.5 97.5q0 87 -51 164t-128 119.5t-155 42.5q-134 0 -234 -95.5t-100 -244.5z" />
<glyph unicode="7" horiz-adv-x="950" d="M61 1274v194h820v-194l-97 -230h125l-108 -194h-101l-358 -850l-270 -92l397 942h-107v194h191l96 230h-588z" />
<glyph unicode="8" horiz-adv-x="1165" d="M51 471q0 161 81 286t212 189q-57 46 -86 115.5t-29 148.5q0 147 99.5 242.5t230.5 95.5q130 0 234 -95.5t104 -229.5q0 -76 -28 -151t-83 -126q135 -64 221.5 -185.5t86.5 -268.5q0 -76 -17 -151.5t-56 -148.5t-95.5 -128.5t-143 -90t-190.5 -34.5q-132 0 -237.5 44 t-170.5 119.5t-99 169.5t-34 199zM266 463q0 -130 82 -220.5t232 -90.5q77 0 136 29.5t92 78t49.5 103t16.5 112.5q0 80 -46.5 149t-116 107.5t-140.5 38.5q-123 0 -214 -86.5t-91 -220.5zM406 1217q0 -68 41 -113t120 -45q71 0 109.5 49.5t38.5 112.5q0 60 -50 104.5 t-108 44.5q-61 0 -106 -43t-45 -110z" />
<glyph unicode="9" horiz-adv-x="1165" d="M59 944q0 76 17 151.5t56 148.5t95.5 128.5t143 90t190.5 34.5q132 0 237.5 -44t170.5 -119.5t99 -169.5t34 -199q0 -122 -47.5 -224.5t-130.5 -175.5l-586 -577l-148 168l293 295q-175 38 -299.5 176t-124.5 317zM291 956q0 -77 45 -143.5t112 -103.5t136 -37 q112 0 194 73l25 25q74 84 74 199q0 125 -78.5 212t-223.5 87q-74 0 -131 -28.5t-89 -75.5t-48 -100t-16 -108z" />
<glyph unicode="?" horiz-adv-x="1181" d="M129 1214.5q8 77.5 36 145.5t83.5 123t128.5 82q71 28 149 32.5t156 -15.5t145 -82t103 -161q52 -137 29 -249t-94 -190t-177 -118q-27 -11 -63 -18v-688h-215v698l88 180q60 -9 125 17q88 32 128.5 113.5t0.5 187.5q-20 54 -56 88.5t-78 45.5t-83.5 8.5t-81.5 -17.5 q-77 -30 -116.5 -110t-23.5 -159l-170 -63q-22 72 -14 149.5zM408 -80q-5 46 20.5 83t75.5 44q51 8 87 -19.5t42 -78.5q6 -52 -20 -86.5t-78 -40.5q-52 -7 -86.5 22t-40.5 76z" />
<glyph unicode="A" horiz-adv-x="1314" d="M102 0l203 543l-2 4h2l369 989l538 -1536h-211l-116 332h-463l-121 -332h-199zM502 547h309l-152 430z" />
<glyph unicode="B" horiz-adv-x="1040" d="M41 -168v1702h422q115 0 217 -55.5t164.5 -154.5t62.5 -218q0 -193 -141 -285q107 -49 171 -140t64 -212q0 -90 -36.5 -173t-99 -144t-151 -97.5t-186.5 -36.5h-301zM236 184q33 0 116 1t123 1q154 0 249 75t95 200q0 80 -54 141.5t-135 91t-173 29.5h-199q-4 -1 -11 -2 t-11 -2v-535zM236 881q82 -7 145 -7q91 0 165 21t125.5 74t51.5 133t-53 139t-133.5 86t-174.5 27h-126v-473z" />
<glyph unicode="C" horiz-adv-x="960" d="M41 426l4 670q0 128 65 230.5t166.5 156t215.5 53.5q120 0 224.5 -52t170 -152.5t65.5 -227.5v-117l-215 66v77q0 28 -9 59.5t-29 63.5t-47.5 58t-68.5 42q-39 15 -83 15h-6q-110 -3 -176 -74t-66 -149q0 -2 -3 -70.5t-6.5 -149t-4.5 -104.5q0 -35 -2 -93t-2.5 -101 t-0.5 -100.5t6 -100t16 -90t29 -80.5t46 -62t67.5 -43.5t91.5 -15.5h5q53 0 96 21q45 22 72 58t47 80t28.5 88t13.5 80.5t5 59.5v23l192 143q1 -9 2.5 -25t1.5 -64q0 -7 1 -14q0 -41 -3 -81q-3 -47 -15 -111t-31.5 -118.5t-55.5 -110.5t-83.5 -95t-119.5 -64t-160 -25 q-105 0 -191.5 41t-139.5 107t-82 143t-31 155z" />
<glyph unicode="D" horiz-adv-x="978" d="M41 -168v1704h199h71q127 0 241 -53t200 -148t136 -237t50 -310q0 -365 -158 -568.5t-444 -217.5q-98 -4 -125 -4zM240 174h43q79 0 142.5 15.5t123.5 56t100 106.5t64.5 173t25.5 249q-1 133 -36.5 240.5t-97.5 178t-145.5 108.5t-180.5 38h-39v-1165z" />
<glyph unicode="E" horiz-adv-x="837" d="M96 2l4 1534h641v-174h-475v-338h512l-135 -174h-377v-674h498v-174h-668z" />
<glyph unicode="F" horiz-adv-x="837" d="M96 0l4 1536h641v-174h-475v-338h512l-135 -174h-377v-850h-170z" />
<glyph unicode="G" horiz-adv-x="1001" d="M41 426l4 670q0 128 65 230.5t166.5 156t215.5 53.5q120 0 224.5 -52t170 -152.5t65.5 -227.5v-117l-215 66v77q0 28 -9 59.5t-29 63.5t-47.5 58t-68.5 42q-39 15 -83 15h-6q-110 -3 -176 -74t-66 -149q0 -2 -3 -70.5t-6.5 -149t-4.5 -104.5q0 -35 -2 -93t-2.5 -101 t-0.5 -100.5t6 -100t16 -90t29 -80.5t46 -62t67.5 -43.5t91.5 -15.5h8q60 0 107 29q50 31 77 74.5t45 102t23 98.5t7 77h-271l469 229l-2 -161v-11v-45h-2q-2 -49 -8.5 -96.5t-22 -103.5t-37.5 -104t-58.5 -94t-82.5 -78.5t-111.5 -52t-144.5 -19.5q-105 0 -191.5 41 t-139.5 107t-82 143t-31 155z" />
<glyph unicode="H" horiz-adv-x="868" d="M49 -117l8 1653h168v-512h428v516h164v-1540h-164v850h-428v-791z" />
<glyph unicode="I" horiz-adv-x="305" d="M68 -117l8 1653h168v-1477z" />
<glyph unicode="J" horiz-adv-x="561" d="M-47 -16l49 163h74q46 0 82 17t60 43.5t40.5 71.5t25 87t13.5 105.5t6.5 110.5t2.5 118q1 45 1 68v621l180 141v-1090q-2 -64 -16.5 -126t-48 -124.5t-82 -109t-125.5 -76t-172 -29.5q-49 0 -90 9z" />
<glyph unicode="K" horiz-adv-x="1163" d="M57 -117l9 1485l172 184v-632l565 616h213l-570 -633l568 -903h-209l-486 764l-81 -92v-613z" />
<glyph unicode="L" horiz-adv-x="901" d="M92 -113v1649h195v-1343h534v-193h-604z" />
<glyph unicode="M" horiz-adv-x="1042" d="M88 -113v1649h197l231 -664l242 664h198v-1536h-194v1090l-256 -689l-221 631v-969z" />
<glyph unicode="N" horiz-adv-x="960" d="M92 0v1536h193l372 -829l5 829h186l-4 -1247l2 -2v-400l-561 1258v-1145h-193z" />
<glyph unicode="O" horiz-adv-x="991" d="M41 393v713q0 111 56 209t160 159.5t232 61.5q50 0 109 -14.5t121.5 -47t113 -77.5t83 -113t32.5 -147l2 -332v-406q0 -109 -63 -206.5t-167.5 -155t-221.5 -57.5q-120 0 -223.5 50.5t-168.5 146.5t-65 216zM233 459q0 -145 72.5 -236.5t183.5 -91.5q118 0 187 96.5 t69 235.5v319q-2 46 -2 265q0 157 -72 237t-186 80q-54 0 -97.5 -19t-72 -50.5t-47.5 -76t-27 -93t-8 -103.5v-563z" />
<glyph unicode="P" horiz-adv-x="935" d="M66 -168v1702h397q115 0 217 -55.5t164.5 -154.5t62.5 -218q0 -123 -57 -225t-161.5 -163t-235.5 -61q-95 0 -205 -8v-622zM248 817h133q57 0 112 12.5t109.5 41t88.5 84.5t34 132q0 57 -24 102t-61 72.5t-87 45.5t-97 25t-94 7h-114v-522z" />
<glyph unicode="Q" horiz-adv-x="991" d="M41 393v713q0 111 56 209t160 159.5t232 61.5q50 0 109 -14.5t121.5 -47t113 -77.5t83 -113t32.5 -147l2 -332v-406q0 -25 -2 -37v-452l-186 153q-124 -83 -264 -83q-120 0 -223.5 50.5t-168.5 146.5t-65 216zM233 459q0 -145 72.5 -236.5t183.5 -91.5q118 0 187 96.5 t69 235.5v319q-2 46 -2 265q0 157 -72 237t-186 80q-54 0 -97.5 -19t-72 -50.5t-47.5 -76t-27 -93t-8 -103.5v-563z" />
<glyph unicode="R" horiz-adv-x="1040" d="M63 -168v1702h398q115 0 217 -55.5t164.5 -154.5t62.5 -218t-56 -220t-153 -161l412 -725h-215l-385 662q-45 -5 -57 -5q-95 0 -205 -8v-622zM246 817h133q57 0 112 12.5t109.5 41t88.5 84.5t34 132q0 57 -24 102t-61 72.5t-87 45.5t-97 25t-94 7h-114v-522z" />
<glyph unicode="S" horiz-adv-x="942" d="M72 422q5 -10 20.5 -39t23 -41.5t23.5 -39t29 -39.5t33 -33.5t41.5 -31t48.5 -22.5t59.5 -17t69.5 -5h6q91 0 143 56q49 53 49 162v17q-2 51 -32 102.5t-76.5 96t-102.5 91t-112 97t-103 104t-78 120.5t-34 139v15q0 93 46 177q50 91 142.5 148.5t204.5 62.5h21 q165 0 274 -104q12 -271 12 -275q-1 1 -26.5 35t-54.5 65.5t-83.5 60.5t-115.5 30h-10q-108 0 -158 -64q-46 -59 -46 -144q0 -12 1 -24q3 -53 59.5 -119.5t134.5 -134.5t156 -140.5t134.5 -158t59.5 -166.5q1 -14 0 -28q0 -175 -82 -277q-89 -110 -239 -116q-27 -1 -52 -1 q-106 0 -184 20q-98 25 -188 87q-14 330 -14 334z" />
<glyph unicode="T" horiz-adv-x="851" d="M14 1370v166h820v-166h-316v-1313l-194 -176l8 1489h-318z" />
<glyph unicode="U" horiz-adv-x="1032" d="M61 393v1141l195 -123v-928q0 -313 258 -313q57 0 102.5 18t74.5 48t48 71.5t27 85.5t8 94v1049h197v-1137q0 -82 -37.5 -159.5t-99.5 -134t-145 -91t-171 -34.5q-120 0 -223.5 50.5t-168.5 146.5t-65 216z" />
<glyph unicode="V" horiz-adv-x="1249" d="M31 1536h215l368 -1073l383 1073h222l-613 -1647z" />
<glyph unicode="W" horiz-adv-x="1908" d="M31 1536h215l368 -1073l222 620l-158 455h215l369 -1073l383 1073h221l-613 -1647l-309 885l-338 -887z" />
<glyph unicode="X" horiz-adv-x="1361" d="M47 0l504 860l-395 678l233 -4l279 -475l278 475l258 4l-407 -698l313 -535l-55 -305l-375 641l-375 -641h-258z" />
<glyph unicode="Y" horiz-adv-x="952" d="M23 1536h196l242 -545l252 545h190l-344 -748v-712l-209 -107l-4 822z" />
<glyph unicode="Z" horiz-adv-x="1294" d="M82 0l784 1346h-729v190h1096l-780 -1341h757l-120 -195h-1008z" />
<glyph unicode="\" horiz-adv-x="935" d="M-4 1368l268 -72l668 -1325l-270 62z" />
<glyph unicode="`" />
<glyph unicode="a" horiz-adv-x="806" d="M100 248q0 71 21.5 127t52.5 91t78.5 60.5t84.5 37t86 17.5t69 6.5t45 0.5h6v86q0 8 -0.5 22t-7.5 49.5t-19 62.5t-39.5 49t-64.5 22t-63 -21t-37 -51t-17 -60.5t-6 -51.5v-21l-168 28q0 7 0.5 19.5t6 48t15.5 67.5t32 71.5t51.5 68t79 48t110.5 19.5q57 0 104 -19 t76 -49t50.5 -66.5t31.5 -73t16 -66.5t7 -49l1 -19v-696l-131 53q-3 -3 -9.5 -8.5t-27.5 -20t-44.5 -25t-60.5 -19.5t-75 -9q-103 0 -178.5 75t-75.5 196zM272 283q0 -64 37.5 -103t96.5 -39q48 0 87 30.5t39 80.5v186q-132 0 -196 -34.5t-64 -120.5z" />
<glyph unicode="b" horiz-adv-x="784" d="M111 -20v1386l172 186l-2 -565q70 53 149 53q129 0 217 -90.5t88 -236.5v-410q0 -133 -88 -229q-87 -95 -220 -94h-3q-110 0 -188 59zM285 410q0 -69 4.5 -114t18.5 -85.5t42 -60t72 -19.5q35 0 60.5 13.5t40.5 36t23.5 59.5t11.5 75.5t3 92.5v204q0 138 -34.5 197 t-108.5 59q-73 0 -103 -62t-30 -192v-204z" />
<glyph unicode="c" horiz-adv-x="708" d="M61 326v376q1 158 93 251q91 91 210 91h5q129 -2 222 -83t93 -211v-80h-178v41q0 32 -9.5 66t-40 65.5t-77.5 31.5q-39 0 -67.5 -17.5t-42 -45.5t-19.5 -52.5t-6 -47.5q0 -58 -8 -174q0 -20 -1.5 -65.5t-1.5 -74.5t2.5 -71t11 -68.5t23 -53t40.5 -39.5t61 -13 q33 0 59.5 13t41.5 33.5t25 45.5t13.5 50.5t5 46t0.5 33.5v13l166 78q0 -9 2 -27q1 -9 1 -26q-1 -16 -1 -42q-2 -50 -9 -96t-28.5 -102t-54.5 -96.5t-91.5 -68t-135.5 -27.5q-143 0 -222.5 100.5t-81.5 245.5z" />
<glyph unicode="d" horiz-adv-x="784" d="M76 303v410q0 146 88 236.5t217 90.5q79 0 149 -53l-2 565l172 -186v-1386l-125 59q-78 -59 -188 -59h-3q-133 0 -220 94q-88 96 -88 229zM250 408q0 -54 3 -92.5t11.5 -75.5t23.5 -59.5t40.5 -36t60.5 -13.5q44 0 72 19.5t42 60t18.5 85.5t4.5 114v204q0 130 -30 192 t-103 62q-74 0 -108.5 -59t-34.5 -197v-204z" />
<glyph unicode="e" horiz-adv-x="718" d="M41 401v211q0 217 79 324.5t247 107.5q311 0 311 -432v-90h-17q-17 -1 -47 -1.5t-67.5 -1.5t-81 -2.5t-84.5 -2.5t-81 -2t-67 -2v-139q0 -138 26.5 -188t96.5 -50q73 0 103 51t30 187q12 4 30.5 11t59 21.5t67 24t26.5 8.5q0 -61 -2.5 -106t-10.5 -95t-22 -85.5 t-38.5 -69.5t-58 -54.5t-82 -33t-110.5 -12.5q-82 0 -142.5 33.5t-95.5 93t-52 133t-17 161.5zM233 659l259 7q-2 121 -30.5 172t-99.5 51q-64 0 -96 -54t-33 -176z" />
<glyph unicode="f" horiz-adv-x="624" d="M47 1012h184q5 90 19.5 163t34.5 124.5t50 91t59.5 64t69.5 41.5t74.5 25.5t79.5 14.5h54v-172q-25 4 -43 2q-61 -5 -104 -34.5t-67.5 -80.5t-37 -108t-17.5 -131h230v-158h-234q0 -136 -2 -195v-772l-170 185v782h-41z" />
<glyph unicode="g" horiz-adv-x="882" d="M10 -307q0 87 43.5 160t114.5 112q-61 99 -61 189q0 81 49 155q-39 67 -39 137v324q0 133 85 210t230 77q68 0 129 -27.5t103 -75.5l127 119l90 -213l-144 -137v-279q0 -99 -91 -191q-89 -91 -217 -91h-3q-70 0 -125 24q-7 -21 -7 -44q0 -68 66 -144h365q99 0 191 -90 t92 -218q0 -73 -26 -133t-67.5 -98.5t-91.5 -60t-100 -21.5h-426q-133 0 -210 85.5t-77 230.5zM182 -319q0 -73 62.5 -103.5t191.5 -30.5h142q54 0 92.5 2.5t75.5 11t59.5 23.5t36.5 40.5t14 60.5q0 44 -19 72.5t-58.5 42.5t-85 19t-113.5 5h-142q-138 0 -197 -34.5 t-59 -108.5zM287 592q0 -69 4.5 -114t18.5 -85.5t42 -60t72 -19.5q35 0 60.5 13.5t40.5 36t23.5 59.5t11.5 75.5t3 92.5v39q0 138 -34.5 197t-108.5 59q-73 0 -103 -62t-30 -192v-39z" />
<glyph unicode="h" horiz-adv-x="790" d="M57 2l4 1454l170 84v-530q58 34 146 34q133 0 219 -85t86 -201l4 -758h-176q0 13 -2 305.5t-2 310.5q0 137 -31.5 189.5t-105.5 52.5t-106 -57t-32 -183v-616h-174z" />
<glyph unicode="i" d="M61 1294q0 45 30.5 79t80.5 34q51 0 84 -31t33 -82q0 -52 -31 -83t-84 -31q-52 0 -82.5 33.5t-30.5 80.5zM88 -113v1157h174v-1040z" />
<glyph unicode="j" d="M-305 -506l98 170q24 -4 74 -4q41 0 73.5 11.5t55.5 35t40 52t27.5 71t17 81.5t10 94.5t4.5 99.5t2 106q1 47 1 70v766h181v-1090q-2 -70 -16.5 -133.5t-48 -125t-82.5 -106.5t-125.5 -72.5t-172.5 -27.5zM63 1268q0 45 30.5 78.5t80.5 33.5q52 0 84.5 -31t32.5 -81 q0 -52 -31 -83.5t-84 -31.5q-52 0 -82.5 34t-30.5 81z" />
<glyph unicode="k" horiz-adv-x="999" d="M66 -117v1485l194 184v-944l365 414h247l-370 -399l397 -613l-143 -123l-379 602l-117 -124v-306z" />
<glyph unicode="l" horiz-adv-x="294" d="M59 2v1538l174 -90v-1448h-174z" />
<glyph unicode="m" horiz-adv-x="1202" d="M63 2l5 1051l137 -68q62 59 176 59q73 0 134.5 -28t102.5 -76q61 104 213 104q133 0 219.5 -85t86.5 -201l4 -758h-176q0 13 -2 305.5t-2 310.5q0 137 -32 189.5t-106 52.5q-69 0 -100.5 -49t-36.5 -158l4 -651h-176q0 13 -2 305.5t-2 310.5q0 137 -31.5 189.5 t-105.5 52.5q-64 0 -96.5 -43t-38.5 -135v-678h-175z" />
<glyph unicode="n" horiz-adv-x="743" d="M59 2l4 1051l150 -74q65 65 184 65q131 0 208 -84t77 -202l4 -758h-176q0 13 -2 305.5t-2 310.5q0 137 -31.5 189.5t-105.5 52.5q-64 0 -97 -43t-39 -135v-678h-174z" />
<glyph unicode="o" horiz-adv-x="743" d="M61 309v408q0 161 84 244t232 83q129 0 217 -90.5t88 -236.5v-410q0 -133 -88 -229q-87 -95 -220 -94h-3q-143 0 -226.5 92t-83.5 233zM231 414q0 -69 5 -114t18.5 -85.5t42 -60t72.5 -19.5q35 0 60.5 13.5t40.5 36t23.5 59.5t11.5 75.5t3 92.5v204q0 138 -34.5 197 t-108.5 59q-73 0 -103.5 -62.5t-30.5 -191.5v-204z" />
<glyph unicode="p" horiz-adv-x="784" d="M82 -344v1386l125 -59q78 59 188 59h3q133 0 220 -94q89 -96 89 -229v-410q0 -146 -88.5 -236.5t-217.5 -90.5q-79 0 -149 53l2 -565zM256 408q0 -130 30 -192t103 -62q74 0 108.5 59t34.5 197v204q0 54 -3 92.5t-11.5 75.5t-23.5 59.5t-40.5 36t-60.5 13.5 q-44 0 -72 -19.5t-42 -60t-18.5 -85.5t-4.5 -114v-204z" />
<glyph unicode="q" horiz-adv-x="784" d="M82 309v410q0 133 88 229q87 94 220 94h3q111 0 189 -59l125 59v-1386l-172 -186l2 565q-70 -53 -150 -53q-129 0 -217 90.5t-88 236.5zM256 410q0 -138 34.5 -197t108.5 -59q73 0 103 62t30 192v204q0 69 -4.5 114t-18.5 85.5t-42 60t-72 19.5q-35 0 -60.5 -13.5 t-40.5 -36t-23.5 -59.5t-11.5 -75.5t-3 -92.5v-204z" />
<glyph unicode="r" horiz-adv-x="700" d="M90 2v1042l137 -73q69 69 205 69q88 0 162 -43.5t111 -115.5l-121 -113q-57 109 -158 109q-60 0 -100.5 -38t-40.5 -102v-735h-195z" />
<glyph unicode="s" horiz-adv-x="626" d="M33 57v232q130 -148 231 -148q57 0 88 40t31 89q0 38 -34.5 83t-83.5 89.5t-98 93.5t-83.5 113.5t-34.5 130.5q0 104 85.5 185.5t199.5 81.5q119 0 194 -78v-195q-1 1 -11.5 13.5t-24.5 25t-34.5 26.5t-50.5 22.5t-63 8.5q-39 0 -69.5 -25.5t-30.5 -64.5 q0 -35 36.5 -81.5t89 -94t105 -98.5t89 -110t36.5 -113q0 -136 -80 -223t-207 -87q-90 0 -155 20.5t-125 63.5z" />
<glyph unicode="t" horiz-adv-x="598" d="M0 1020h174v350l170 184v-534h193v-215h-193v-158q0 -73 1.5 -152t1.5 -155.5t12.5 -146t35 -123.5t68.5 -88.5t112 -40.5q18 -2 43 2v-172h-53q-52 6 -90.5 15.5t-81.5 29.5t-73.5 49.5t-59.5 77.5t-47 111t-28.5 152t-10.5 200v401z" />
<glyph unicode="u" horiz-adv-x="790" d="M82 1026h176q0 -12 2 -304.5t2 -311.5q0 -137 31.5 -189.5t105.5 -52.5q64 0 97 43t39 135v678h174l-4 -1051l-156 78q-57 -69 -178 -69q-131 0 -208 84t-77 202z" />
<glyph unicode="v" horiz-adv-x="858" d="M25 1024h176l231 -676l242 676h170l-422 -1135z" />
<glyph unicode="w" horiz-adv-x="1300" d="M25 1024h176l231 -676l135 377l-104 297h176l231 -676l242 676h170l-422 -1135l-213 609l-225 -607z" />
<glyph unicode="x" horiz-adv-x="976" d="M162 0l284 557l-249 467h176l188 -348l160 348h182l-260 -500l162 -301l-39 -264l-238 444l-174 -403h-192z" />
<glyph unicode="y" horiz-adv-x="952" d="M98 1024h197l211 -616l76 210l145 406h191l-422 -1135v2l-113 -301l-211 -102l236 651z" />
<glyph unicode="z" horiz-adv-x="1011" d="M115 0l510 877h-402v147h692l-509 -874h530l-117 -150h-704z" />
<glyph unicode="|" horiz-adv-x="401" d="M98 -184v1650l213 70l-4 -1626z" />
<glyph unicode="&#xa7;" horiz-adv-x="989" d="M41 57v232q129 -148 231 -148q57 0 88 40t31 89q0 23 -12 47v2q-15 32 -55.5 73.5t-84 81.5t-85.5 86t-69.5 103t-27.5 117q0 104 85.5 185.5t199.5 81.5q8 0 53 -5q2 104 87 184.5t198 80.5q119 0 194 -78v-195q-1 1 -11.5 13.5t-24.5 25t-34.5 26.5t-50.5 22.5t-63 8.5 q-39 0 -69.5 -25.5t-30.5 -64.5q0 -35 36.5 -81.5t89 -94t105 -98.5t89 -110t36.5 -113q0 -136 -80 -223t-207 -87q-29 0 -53 3q-14 -118 -91 -190.5t-193 -72.5q-91 0 -156.5 20.5t-124.5 63.5zM252 780q0 -34 36 -80.5t82.5 -87.5t104 -98.5t88.5 -103.5q24 -9 47 -9 q57 0 88 40t31 89q0 40 -33.5 83t-100.5 105t-99 99q-61 53 -144 53q-39 0 -69.5 -25.5t-30.5 -64.5z" />
<glyph unicode="&#xc6;" horiz-adv-x="1314" d="M-35 -2l570 1530v4h2h639v-215h-431l-2 -297h469l-176 -215h-293l-2 -535h457v-215h-457l-215 -176l2 375h-211l-94 -256h-258zM395 469h133l2 369z" />
<glyph unicode="&#xd8;" horiz-adv-x="970" d="M-164 -20l213 321q-20 72 -20 125q-1 67 0.5 289.5t1.5 271.5v117q0 128 64 226t171 153q100 53 213 53h13q113 0 213 -53q34 -18 86 -56l71 109h240l-189 -283q27 -76 27 -149v-117q0 -49 1.5 -271.5t0.5 -289.5q-2 -78 -31 -155t-82 -143t-139.5 -107t-191.5 -41h-13 h-12q-191 0 -315 131l-86 -131h-236zM254 612l393 598q-40 40 -74 54l-8 4q-27 11 -69 14h-17q-48 -3 -82 -18l-6 -2l-2 -2q-81 -40 -115 -132q-6 -21 -6 -43q0 -41 -10 -286q0 -27 -2 -90t-2 -97zM299 324q61 -126 182 -129q52 -1 94 22t66 55.5t41.5 78t24 80t10.5 71.5 q2 58 -1 164t-3 133q0 12 -2.5 62.5t-3.5 78.5z" />
<glyph unicode="&#xdf;" horiz-adv-x="1040" d="M41 -512v2046h422q115 0 217 -55.5t164.5 -154.5t62.5 -218q0 -176 -121 -270q98 -59 156.5 -155t58.5 -212q0 -124 -47.5 -225t-143.5 -163.5t-226 -62.5h-303v-335zM281 262q61 2 194 2q287 0 287 197q0 49 -18.5 84.5t-46 55.5t-70 31.5t-81.5 15t-89 3.5 q-119 0 -176 -2v-387zM281 899h100q287 0 287 197q0 49 -18.5 84.5t-46.5 55.5t-70.5 31.5t-81.5 15t-89 3.5h-81v-387z" />
<glyph unicode="&#xe6;" horiz-adv-x="1222" d="M100 248q0 71 21.5 127t52.5 91t78.5 60.5t84.5 37t86 17.5t69 6.5t45 0.5h6v86q0 8 -0.5 22t-7.5 49.5t-19 62.5t-39.5 49t-64.5 22t-63 -21t-37 -51t-17 -60.5t-6 -51.5v-21l-168 28q0 7 0.5 19.5t6 48t15.5 67.5t32 71.5t51.5 68t79 48t110.5 19.5q139 0 213 -106 q79 102 243 102q312 0 312 -432v-90h-17q-17 -1 -47 -1.5t-67.5 -1.5t-81 -2.5t-84.5 -2.5t-81 -2t-67 -2v-139q0 -138 26.5 -188t96.5 -50q73 0 103 51t30 187q12 4 30.5 11t59 21.5t67 24t26.5 8.5q0 -61 -2.5 -106t-10.5 -95t-22 -86t-38.5 -70t-58 -54.5t-82 -33 t-110.5 -12.5q-148 0 -227 113q-68 -111 -273 -111q-103 0 -178.5 75t-75.5 196zM272 283q0 -64 37.5 -103t96.5 -39q48 0 87 30.5t39 80.5v186q-132 0 -196 -34.5t-64 -120.5zM739 655l258 7q-2 121 -30 172t-99 51q-64 0 -96 -54t-33 -176z" />
<glyph unicode="&#xf8;" horiz-adv-x="743" d="M-57 -20l135 204q-17 46 -17 84v490q0 66 29.5 122t76 90.5t101 54t107.5 19.5q127 0 217 -81l53 81h164l-137 -208q10 -38 10 -78v-492q0 -100 -88 -191.5t-217 -90.5q-128 0 -217 79l-56 -83h-161zM231 418l246 373q-31 61 -106 61q-140 0 -140 -234v-200zM260 215 q32 -63 109 -63q44 0 72.5 19.5t42.5 58t19 80.5t5 102v178z" />
<glyph unicode="&#x2000;" horiz-adv-x="799" />
<glyph unicode="&#x2001;" horiz-adv-x="1598" />
<glyph unicode="&#x2002;" horiz-adv-x="799" />
<glyph unicode="&#x2003;" horiz-adv-x="1598" />
<glyph unicode="&#x2004;" horiz-adv-x="532" />
<glyph unicode="&#x2005;" horiz-adv-x="399" />
<glyph unicode="&#x2006;" horiz-adv-x="266" />
<glyph unicode="&#x2007;" horiz-adv-x="266" />
<glyph unicode="&#x2008;" horiz-adv-x="199" />
<glyph unicode="&#x2009;" horiz-adv-x="319" />
<glyph unicode="&#x200a;" horiz-adv-x="88" />
<glyph unicode="&#x202f;" horiz-adv-x="319" />
<glyph unicode="&#x205f;" horiz-adv-x="399" />
<glyph unicode="&#x25fc;" horiz-adv-x="1024" d="M0 0v1024h1024v-1024h-1024z" />
<glyph unicode="&#xfb01;" horiz-adv-x="817" d="M31 1026h178v131q1 20 4 41.5t13 61t25.5 73.5t44.5 73t66.5 66.5t95 45.5t126.5 18l-2 -182q-45 0 -78.5 -21.5t-49 -52t-24.5 -60.5t-10 -52l-2 -21v-121h358l-4 -958l-209 -177v920h-145l-2 -743l-215 -177l6 920zM530 1171q0 45 30.5 79t80.5 34q51 0 84 -31t33 -82 q0 -52 -31 -83t-84 -31q-52 0 -82.5 33.5t-30.5 80.5z" />
</font>
</defs>
</svg>
