<?xml version="1.0" standalone="no"?>
<!DOCTYPE svg PUBLIC "-//W3C//DTD SVG 1.1//EN" "http://www.w3.org/Graphics/SVG/1.1/DTD/svg11.dtd" >
<svg xmlns="http://www.w3.org/2000/svg" xmlns:xlink="http://www.w3.org/1999/xlink" version="1.1">
<metadata></metadata>
<defs>
<font id="szellemroman_old_style" horiz-adv-x="1148" >
<font-face units-per-em="2048" ascent="1638" descent="-410" />
<missing-glyph horiz-adv-x="552" />
<glyph horiz-adv-x="0" />
<glyph horiz-adv-x="0" />
<glyph unicode="&#xd;" horiz-adv-x="0" />
<glyph unicode=" "  horiz-adv-x="552" />
<glyph unicode="&#x09;" horiz-adv-x="552" />
<glyph unicode="&#xa0;" horiz-adv-x="552" />
<glyph unicode="!" d="M492 2q26 28 80 80q26 -26 78 -80l-78 -78q-28 26 -80 78zM500 954q-14 26 54 38l68 10q-14 -296 -40 -888h-10h-12l-6 104q-6 106 -14 242q-6 108 -14 218q-6 108 -14 182q-4 40 -6 64q-4 26 -6 30z" />
<glyph unicode="&#x26;" horiz-adv-x="1622" d="M-6 450q0 28 4 58q8 70 32 136q40 102 122 150q80 46 158 62q-102 138 -92 242t70 166q68 68 148 86q78 18 124 18h4q22 0 52 -2q32 -2 68 -6q50 -4 92 -8l42 -4l48 -246q-8 -2 -26 -6q-2 20 -48 88t-94 96q-50 28 -112 38t-122 -6q-48 -12 -98 -70q-50 -56 -32 -134 q6 -32 36 -78q30 -48 68 -96q58 -72 112 -130l54 -58l20 -22t54 -60q62 -68 162 -172q98 -104 198 -202q28 40 42 96q16 54 16 90q0 30 -6 88q-4 56 -26 94q-28 50 -90 54q-64 4 -84 4v30h470v-30q-20 0 -84 -6q-64 -4 -90 -54q-22 -38 -28 -132q-4 -94 -8 -130 q-2 -30 -16 -70q-16 -40 -44 -86q62 -60 116 -106t88 -66q36 -22 76 -34t78 -16q70 -10 120 -4l52 6q2 -8 4 -24l-94 -18q-96 -20 -216 -10q-64 4 -126 22q-62 20 -112 58q-20 14 -42 34t-46 44q-108 -94 -262 -150q-76 -26 -166 -26q-96 -2 -208 28q-156 42 -244 150 q-86 108 -106 240q-8 40 -8 84zM102 548q-8 -54 10 -116q20 -62 60 -124q72 -110 202 -188t278 -54q90 14 160 44q68 28 120 68q-48 48 -118 120q-70 74 -142 152q-106 116 -194 212q-86 94 -88 98l-28 18q-26 20 -68 20q-40 0 -106 -50q-64 -50 -86 -200z" />
<glyph unicode="," d="M494 2l82 82q10 -12 32 -34l48 -48q-30 -48 -90 -146q-6 4 -16 10l6 18q6 20 10 46z" />
<glyph unicode="." d="M508 -2l76 76q24 -26 74 -76l-74 -74q-26 24 -76 74z" />
<glyph unicode="0" horiz-adv-x="1106" d="M0 678q0 102 22 194q20 94 58 174q72 150 192 240t264 90q78 0 150 -26q70 -28 132 -78q114 -92 184 -248q70 -158 70 -346q0 -102 -20 -196q-22 -94 -60 -172q-72 -150 -192 -240q-120 -92 -264 -92t-264 92q-120 90 -192 240q-38 78 -58 172q-22 94 -22 196zM118 676 q0 -92 16 -178t46 -160q54 -138 148 -222t210 -84q60 0 118 26q56 26 104 72q90 84 144 228q54 146 54 318q0 174 -54 318q-54 146 -144 230q-48 46 -104 72q-58 24 -118 24q-62 0 -118 -24q-56 -26 -106 -72q-88 -84 -142 -230q-54 -144 -54 -318z" />
<glyph unicode="1" horiz-adv-x="492" d="M-2 0v28q18 0 58 6q38 4 64 52q28 48 30 122l2 72v92v216q0 152 -2 304v194q0 78 -4 110q-6 34 -28 74q-22 38 -70 44l-50 4v24h460v-24l-50 -4q-50 -6 -72 -44q-22 -40 -26 -74q-6 -32 -6 -110v-146v-238q0 -158 -2 -290v-132l2 -72q2 -74 30 -122q26 -48 66 -52 q38 -6 58 -6v-28h-460z" />
<glyph unicode="2" horiz-adv-x="984" d="M0 0v28q20 0 58 6t66 52q26 50 28 122l2 72v92v216v304v194q0 78 -6 112q-6 32 -26 72q-22 40 -72 44l-50 6v22h460v-22l-50 -6q-50 -4 -72 -44q-20 -40 -26 -72q-6 -34 -6 -112v-194v-304v-216v-92l2 -72t30 -122q26 -46 64 -52t58 -6v-28h-460zM522 0v28q20 0 58 6 q40 6 66 52q28 50 30 122l2 72v92v216q-2 154 -2 304v194q0 78 -4 112q-6 32 -28 72t-72 44l-50 6v22h460q0 -8 2 -22l-50 -6q-50 -4 -72 -44t-28 -72q-4 -34 -4 -112v-194q0 -150 -2 -304v-216v-92l2 -72t30 -122q26 -46 66 -52q38 -6 58 -6v-28h-462z" />
<glyph unicode="3" horiz-adv-x="1558" d="M0 0v28q20 0 58 6t66 52q26 50 28 122l2 72v92v216v304v194q0 78 -6 112q-6 32 -26 72q-22 40 -72 44l-50 6v22h460v-22l-50 -6q-50 -4 -72 -44q-20 -40 -26 -72q-6 -34 -6 -112v-194v-304v-216v-92l2 -72t30 -122q26 -46 64 -52t58 -6v-28h-460zM532 0v28q20 0 58 6 t66 52q26 50 30 122l2 72v92q-2 92 -2 216v304v194q0 78 -6 112q-4 32 -26 72t-72 44l-50 6v22h460v-22l-50 -6q-50 -4 -70 -44q-22 -40 -28 -72q-4 -34 -4 -112v-194q-2 -150 -2 -304v-216v-92l2 -72t30 -122q26 -46 64 -52t58 -6v-28h-460zM1066 0v28q20 0 58 6t64 52 q28 50 30 122l2 72v92v216q0 154 -2 304v194q0 78 -4 112q-6 32 -28 72q-20 40 -70 44l-50 6v22h460v-22l-50 -6q-50 -4 -72 -44t-26 -72q-6 -34 -6 -112v-194v-304q0 -124 -2 -216v-92l2 -72q4 -72 30 -122q28 -46 66 -52t58 -6v-28h-460z" />
<glyph unicode="4" horiz-adv-x="2048" d="M0 0v28q20 0 58 6t66 52q26 50 28 122l2 72v92v216v304v194q0 78 -6 112q-6 32 -26 72q-22 40 -72 44l-50 6v22h460v-22l-50 -6q-50 -4 -72 -44q-20 -40 -26 -72q-6 -34 -6 -112v-194v-304v-216v-92l2 -72t30 -122q26 -46 64 -52t58 -6v-28h-460zM532 1320v24h154 q26 -2 78 -2h76h154v-24l-50 -4q-50 -6 -72 -46q-16 -30 0 -66q16 -38 52 -120h-168q-32 70 -46 106t-40 72q-32 46 -84 52zM670 1278q24 12 72 32q22 10 70 30l36 -84q38 -86 70 -160q14 -34 58 -140q46 -106 98 -228q24 -52 46 -104t40 -98q38 -86 62 -144l24 -56l30 -66 q18 -44 56 -132q-32 -56 -94 -168q-14 32 -44 100q-28 68 -86 204l-38 88t-90 206q-40 94 -82 194q-42 98 -74 170q-18 40 -30 68q-12 30 -18 44q-32 74 -68 160zM1222 -2q192 436 578 1312q16 -8 50 -22q-196 -442 -586 -1328h-26q-6 12 -16 38zM1628 1318v24h154h36h36 h156v-24l-62 -4q-60 -6 -88 -34q-32 -32 -54 -82q-22 -48 -48 -116h-58l8 16q2 8 6 16q28 64 38 96q12 32 -2 58q-22 40 -72 46zM1698 1082l8 16l8 16q-4 -8 -6 -16l-8 -16h58h-60z" />
<glyph unicode="5" horiz-adv-x="1476" d="M-2 1320v24h156q26 -2 76 -2h78h154v-24l-50 -4q-50 -6 -72 -46q-16 -30 0 -66q16 -38 50 -120h-168q-30 70 -44 106t-40 72q-32 46 -86 52zM138 1278q24 12 70 32q24 10 70 30l38 -84q36 -86 68 -160q14 -34 60 -140t98 -228l44 -104t42 -98q38 -86 62 -144l24 -56 q10 -22 28 -66q20 -44 58 -132l-96 -168q-14 32 -42 100t-88 204l-36 88q-38 88 -90 206q-40 94 -84 194q-42 98 -72 170q-18 40 -30 68q-12 30 -20 44q-30 74 -68 160zM688 -2q194 436 580 1312q16 -8 48 -22q-194 -442 -584 -1328h-28q-4 12 -16 38zM1094 1318q0 8 2 24 h154h36h36h154v-24l-60 -4q-62 -6 -88 -34q-32 -32 -54 -82q-22 -48 -48 -116h-58q4 8 6 16q4 8 6 16q28 64 40 96t-2 58q-22 40 -72 46zM1166 1082l8 16t6 16q-2 -8 -6 -16q-2 -8 -6 -16h58h-60z" />
<glyph unicode="6" horiz-adv-x="2048" d="M-2 1320v24h154q26 -2 78 -2h76h154q0 -8 2 -24l-52 -4q-50 -6 -72 -46q-16 -30 0 -66q16 -38 52 -120h-168q-32 70 -46 106t-40 72q-32 46 -84 52zM136 1278q24 12 72 32q22 10 70 30l36 -84q38 -86 70 -160q14 -34 58 -140q46 -106 98 -228q24 -52 46 -104t42 -98 q36 -86 60 -144l24 -56l30 -66q18 -44 56 -132q-32 -56 -94 -168q-14 32 -44 100q-28 68 -86 204l-38 88t-90 206q-40 94 -82 194q-42 98 -74 170q-18 40 -30 68q-12 30 -18 44q-32 74 -68 160zM688 -2q192 436 578 1312q16 -8 50 -22q-196 -442 -586 -1328h-26 q-6 12 -16 38zM1094 1318v24h154h36h36h156v-24l-62 -4q-60 -6 -88 -34q-32 -32 -54 -82q-22 -48 -48 -116h-58l8 16q2 8 6 16q28 64 38 96q12 32 -2 58q-22 40 -72 46zM1166 1082h58h-58q2 8 6 16l8 16q-4 -8 -6 -16zM1556 0v28q20 0 58 6t66 52q26 50 30 122l2 72v92 q-2 92 -2 216v304v194q0 78 -6 112q-4 32 -26 72t-72 44l-50 6v22h460v-22l-50 -6q-50 -4 -70 -44q-22 -40 -28 -72q-4 -34 -4 -112v-194q-2 -150 -2 -304v-216v-92l2 -72t30 -122q26 -46 64 -52t58 -6v-28h-460z" />
<glyph unicode="7" horiz-adv-x="2582" d="M0 1320v24h156q24 -2 76 -2h76h156v-24l-50 -4q-52 -6 -72 -46q-16 -30 0 -66q16 -38 50 -120h-168q-30 70 -46 106q-14 36 -40 72q-30 46 -84 52zM140 1278q22 12 70 32q24 10 70 30l38 -84q36 -86 68 -160q14 -34 60 -140q44 -106 98 -228l44 -104t42 -98 q36 -86 62 -144l24 -56q8 -22 28 -66q18 -44 56 -132q-30 -56 -94 -168q-14 32 -42 100q-30 68 -88 204l-38 88t-88 206q-42 94 -84 194q-42 98 -74 170q-16 40 -30 68q-12 30 -18 44q-32 74 -68 160zM690 -2q192 436 578 1312q16 -8 50 -22q-196 -442 -586 -1328h-26 q-6 12 -16 38zM1096 1318v24h156h36h36h154v-24l-60 -4q-62 -6 -90 -34q-32 -32 -54 -82q-22 -48 -46 -116h-58q2 8 6 16q2 8 6 16q28 64 40 96q10 32 -4 58q-22 40 -72 46zM1168 1082q4 8 6 16l8 16q-4 -8 -6 -16q-4 -8 -6 -16h58h-60zM1560 0v28q18 0 58 6q38 6 64 52 q28 50 30 122l2 72v92v216q-2 154 -2 304v194q0 78 -4 112q-6 32 -28 72t-72 44l-48 6v22h458q2 -8 2 -22l-50 -6q-50 -4 -72 -44t-26 -72q-6 -34 -6 -112v-194v-304q-2 -124 -2 -216v-92l2 -72t30 -122q26 -46 66 -52q38 -6 58 -6v-28h-460zM2088 0v28q20 0 60 6 q38 6 64 52q28 50 30 122l2 72v92v216q-2 154 -2 304v194q0 78 -4 112q-6 32 -28 72t-72 44l-50 6v22h460q0 -8 2 -22l-50 -6q-50 -4 -72 -44t-28 -72q-4 -34 -4 -112v-194q0 -150 -2 -304v-216v-92l2 -72t30 -122q26 -46 66 -52q38 -6 58 -6v-28h-462z" />
<glyph unicode="8" horiz-adv-x="3114" d="M0 1320v24h154q26 -2 78 -2h76h154v-24l-50 -4q-50 -6 -72 -46q-16 -30 0 -66q16 -38 52 -120h-168q-32 70 -46 106t-40 72q-32 46 -86 52zM138 1278q24 12 72 32q22 10 70 30l36 -84q38 -86 68 -160q16 -34 60 -140q46 -106 98 -228q22 -52 46 -104q22 -52 40 -98 q38 -86 62 -144l24 -56q10 -22 28 -66q20 -44 58 -132q-32 -56 -94 -168q-14 32 -44 100q-28 68 -86 204l-38 88t-90 206q-40 94 -82 194q-44 98 -74 170q-18 40 -30 68q-12 30 -18 44q-32 74 -68 160zM690 -2q192 436 578 1312q16 -8 50 -22q-196 -442 -586 -1328h-26 q-6 12 -16 38zM1096 1318v24h154h36h36h156v-24l-62 -4q-60 -6 -88 -34q-32 -32 -54 -82q-22 -48 -48 -116h-58q4 8 6 16q4 8 6 16q28 64 40 96t-2 58q-22 40 -72 46zM1166 1082l8 16t6 16q-2 -8 -6 -16q-2 -8 -6 -16h58h-60zM1558 0v28q20 0 58 6t66 52q26 50 28 122l2 72 v92v216v304v194q0 78 -6 112q-4 32 -26 72t-72 44l-50 6v22h460v-22l-50 -6q-50 -4 -70 -44q-22 -40 -28 -72q-6 -34 -6 -112v-194v-304v-216v-92l2 -72t30 -122q26 -46 64 -52t58 -6v-28h-460zM2088 0v28q20 0 58 6t66 52q26 50 28 122l2 72v92v216v304v194q0 78 -6 112 q-6 32 -26 72q-22 40 -72 44l-50 6v22h460v-22l-50 -6q-50 -4 -72 -44q-20 -40 -26 -72q-6 -34 -6 -112v-194v-304v-216v-92l2 -72t30 -122q26 -46 64 -52t58 -6v-28h-460zM2622 0v28q20 0 58 6t64 52q28 50 30 122l2 72v92v216v304q-2 152 -2 194q0 78 -4 112q-6 32 -28 72 q-20 40 -70 44l-50 6v22h460v-22l-50 -6q-50 -4 -72 -44t-26 -72q-6 -34 -6 -112v-194v-304v-216l-2 -92l4 -72q2 -72 28 -122q28 -46 66 -52t58 -6v-28h-460z" />
<glyph unicode="9" horiz-adv-x="1762" d="M0 0v28q20 0 58 6t66 52q26 50 28 122l2 72v92v216v304v194q0 78 -6 112q-6 32 -26 72q-22 40 -72 44l-50 6v22h460v-22l-50 -6q-50 -4 -72 -44q-20 -40 -26 -72q-6 -34 -6 -112v-194v-304v-216v-92l2 -72t30 -122q26 -46 64 -52t58 -6v-28h-460zM532 0v24l62 6 q60 4 88 32q32 32 58 82q26 48 66 116h64q-4 -10 -50 -88t-28 -108q20 -36 70 -38l50 -2v-24h-154h-36h-36h-154zM586 1318v24h154h76h76h154v-24l-52 -4q-54 -4 -72 -40q-18 -30 12 -66q28 -38 72 -120q-58 -2 -176 -6q-42 72 -62 106q-20 36 -46 72q-30 44 -84 52zM678 44 q152 254 458 762q12 -16 36 -44q-152 -254 -458 -762q-8 2 -26 4q-4 12 -10 40zM736 1244q22 12 64 38q22 14 66 40l48 -78q46 -80 88 -148q18 -32 76 -130q60 -98 126 -212q82 -138 152 -256l70 -118l36 -60t74 -122q-24 -60 -70 -180q-20 32 -56 94q-38 64 -112 190 l-50 82q-48 82 -114 192q-80 134 -162 268q-80 134 -102 172q-40 68 -88 148zM1126 734q110 184 330 550q16 -10 46 -28q-112 -188 -340 -566q-12 16 -36 44zM1286 24l54 4q52 4 72 40q16 30 -14 66q-28 38 -72 120q58 2 176 6q42 -72 62 -106q20 -36 46 -72q30 -44 84 -52 l52 -6v-24h-154h-76h-76h-152q0 8 -2 24zM1294 1318v24h154h34h36h154v-24l-60 -6q-60 -4 -88 -32q-32 -34 -58 -82q-28 -48 -68 -116h-62q2 10 50 88q46 78 28 106q-22 36 -72 40z" />
<glyph unicode="?" d="M360 826q10 56 32 166l76 18q76 20 158 20q52 0 128 -20q76 -22 120 -82q38 -50 38 -142q2 -92 -50 -158q-70 -90 -126 -170q-54 -78 -96 -156q-38 -76 -40 -138v-62h-30l-8 70t28 156q20 50 46 98t54 92q52 84 96 156t50 128q10 100 -64 148q-76 46 -140 46 q-28 0 -70 -2t-80 -24t-68 -76q-32 -56 -34 -72q-6 2 -20 4zM500 2l82 82q26 -28 82 -82l-82 -82q-28 26 -82 82z" />
<glyph unicode="A" horiz-adv-x="1578" d="M4 0v24l58 4q60 6 86 34q32 32 52 78q22 48 46 114h58l-8 -16l-4 -16q-28 -62 -40 -94q-10 -30 4 -56q20 -38 70 -44l48 -4v-24h-150h-36h-34h-150zM158 54l570 1290h24q6 -12 16 -38q-186 -424 -562 -1274q-16 8 -48 22zM246 254h58q-2 -8 -6 -16t-6 -16l4 16l8 16h-58z M356 454v26l2 26h642v-52h-644zM662 1180q30 54 90 164q14 -32 42 -98t86 -198l36 -86q36 -84 86 -200q62 -142 122 -282t78 -180q30 -72 66 -154l36 -84q-24 -10 -70 -30q-22 -10 -68 -30l-36 84q-36 82 -66 154q-16 40 -76 180q-62 140 -122 282q-48 116 -86 200l-36 86 q-10 22 -28 64t-54 128zM988 0v24l50 4q48 6 70 44q7 15 7 31.5t-7 34.5q-16 36 -50 116h164q30 -68 42 -104q14 -34 40 -70q30 -44 82 -50l52 -8v-22h-150h-74h-74h-152z" />
<glyph unicode="B" horiz-adv-x="1066" d="M4 2v28q20 0 58 6t66 52q26 50 30 122l2 72v92q-2 92 -2 216v304v194q0 78 -6 112q-4 34 -26 72q-22 40 -72 44l-50 6v24h308v-258v-194q-2 -150 -2 -304v-216v-92v-280h-306zM284 2v54h30h122l78 4q76 4 140 36q50 24 82 58q30 36 48 74q24 55 24 113q0 15 -2 31 q-8 74 -26 118q-44 100 -132 142q-86 42 -168 42h-86v28h174l46 -2q44 0 106 -16q32 -10 66 -24q36 -14 68 -36q94 -68 110 -208q2 -26 2 -50q0 -108 -56 -192q-26 -38 -60 -68q-36 -30 -76 -50q-58 -26 -126 -40q-68 -12 -148 -14h-186h-30zM308 1290v54q72 2 214 2l96 -6 q94 -4 188 -72q96 -68 112 -192q3 -23 3 -46q0 -99 -57 -182q-68 -102 -186 -138q-112 -36 -258 -36h-16h-18q0 10 2 32h44q46 0 106 16q30 8 62 22q32 16 60 38q108 93 108 198v8q-2 110 -50 182q-40 64 -96 92q-54 26 -148 30q-54 0 -166 -2z" />
<glyph unicode="C" d="M4 682q0 116 32 224q60 206 252 332q92 60 184 90q94 30 178 40q64 6 118 6q84 0 148 -16l108 -26q2 -24 6 -70l-88 32q-69 24 -163 24q-25 0 -51 -2q-68 -4 -142 -28t-146 -76q-82 -62 -134 -124q-52 -60 -82 -122q-58 -114 -60 -220q-2 -43 -2 -83q0 -60 4 -111 q4 -70 28 -138q26 -68 66 -130q78 -114 202 -192q124 -76 270 -76q224 0 304 26l80 28q-10 -24 -28 -72l-108 -18q-104 -18 -308 -18h-14q-136 0 -266 64q-128 64 -222 174q-50 58 -88 130q-36 70 -54 148q-24 104 -24 204zM710 14l44 2q46 0 100 6q38 4 72 12q36 8 58 20 q68 36 102 96l34 60q8 -2 26 -4q-16 -68 -48 -202l-116 -22q-98 -21 -228 -21q-22 0 -44 1v52zM780 1318l6 54q22 0 60 -4q38 -2 80 -6q62 -6 114 -10q54 -4 54 -6q14 -78 46 -234q-10 -2 -28 -4q-2 20 -40 76q-40 56 -88 82q-50 28 -126 40z" />
<glyph unicode="D" horiz-adv-x="1278" d="M-2 0v28q20 0 58 6q40 6 66 52q28 50 30 122l2 72v134q0 132 -2 288v240v146q0 78 -4 110q-6 34 -28 74q-22 38 -72 44l-50 4v24h308v-256v-146v-240q-2 -156 -2 -288v-134v-280h-306zM242 0v54l14 -2q12 -2 74 -2q32 0 84 2q50 0 124 2q290 6 424 182q130 169 130 396 v14q-4 278 -122 428q-120 150 -284 188q-104 24 -204 28q-76 4 -130 4h-34q-36 -2 -56 -2l-20 -2q2 18 2 54h118h108h134q86 0 158 -20q74 -18 138 -48q78 -38 140 -90q64 -52 110 -116q86 -120 114 -268q12 -66 12 -132q0 -80 -18 -160q-46 -192 -142 -302 q-98 -110 -220 -158q-68 -28 -140 -38q-70 -12 -144 -12h-288h-82z" />
<glyph unicode="E" horiz-adv-x="874" d="M-2 0v28q20 0 58 6t64 54q28 48 30 120l2 72v92v218v304v194q0 76 -6 110t-28 72q-20 40 -66 44l-46 6v24h298v-24v-78v-154v-146v-240v-288v-134v-252v-28h-306zM-2 0v28q20 0 58 6t64 54q28 48 30 120l2 72v92v218v304v194q0 76 -6 110t-28 72q-20 40 -70 46l-50 4v24 h230v-1344h-230zM94 0v54h676v-54h-676zM106 1290v54h664v-54h-664zM152 688v54h618v-54h-618zM482 1290v54h302q16 -80 46 -242q-8 -2 -26 -4q-2 20 -40 76q-40 56 -88 82q-48 28 -120 30zM488 0v54l84 6q86 8 134 34q68 38 102 98l36 62q8 -2 26 -6q-20 -82 -58 -248h-324 zM488 688v54h282v-210h-30q0 18 -4 58q-6 38 -54 64q-48 28 -120 30z" />
<glyph unicode="F" horiz-adv-x="836" d="M2 0v28q20 0 58 6t64 52q28 50 30 122l2 72v92v216v304q-2 150 -2 194q0 76 -4 110q-6 34 -28 72q-20 40 -70 44l-50 6v24h306v-256v-146v-240v-288l-2 -132l2 -72q4 -72 30 -122q28 -46 66 -52t58 -6v-28h-460zM110 1288v54h664v-54h-664zM156 686v54h618v-54h-618z M486 1288v54h302q16 -82 46 -242q-8 -2 -26 -4q-2 20 -42 76q-38 56 -86 82q-48 28 -120 30zM492 686v54h282v-210h-30q0 20 -4 58q-6 38 -54 64q-48 28 -120 32z" />
<glyph unicode="G" horiz-adv-x="1270" d="M6 680q0 118 32 228q62 208 256 334q92 62 186 92t180 40q64 8 118 8q84 0 152 -16l108 -28q2 -22 6 -70l-88 32q-71 24 -166 24q-25 0 -52 -2q-68 -4 -142 -28q-76 -24 -148 -78q-152 -112 -210 -230t-68 -224q-4 -44 -4 -85v-27q2 -54 4 -100q4 -70 30 -140 q24 -68 66 -132q78 -116 204 -194t272 -78q80 0 134 14q52 14 84 34q60 36 70 78l8 40q12 -64 34 -190l-94 -16q-90 -14 -292 -14h-18q-138 0 -268 66q-130 64 -226 176q-50 58 -88 130q-36 70 -56 150q-24 106 -24 206zM792 1324l6 54q22 0 62 -2q38 -4 80 -8 q62 -4 116 -10l52 -4q16 -80 46 -238q-8 -2 -26 -4q-2 20 -42 76q-40 58 -88 84q-50 28 -128 40zM882 538v22h158h76h78h156v-24l-50 -4q-50 -6 -72 -44q-22 -40 -28 -74t-6 -114q0 -12 2 -50v-78v-96l2 -44q-46 -34 -102 -46q-58 -10 -56 -10v38v88v122q-2 62 -2 76 q0 80 -4 114q-6 32 -28 74q-22 38 -72 44z" />
<glyph unicode="H" horiz-adv-x="1548" d="M2 2v28q20 0 58 6t66 54q26 48 28 120l2 72v92v218v302v194q0 78 -6 112t-26 72q-22 40 -72 44l-50 6v22h460v-22l-50 -6q-50 -4 -72 -44q-20 -38 -26 -72t-6 -112v-194v-302v-218v-92l2 -72t30 -120q26 -48 64 -54t58 -6v-28h-460zM272 688v54h994v-54h-994zM1092 -2v30 q20 0 58 4q38 6 64 54q28 48 30 120l2 74v92v216v304q-2 150 -2 194q0 76 -4 110q-6 34 -28 72q-20 40 -70 46l-50 4v24h460v-24l-50 -6q-50 -4 -72 -44q-22 -38 -26 -72q-6 -34 -6 -110v-194v-304v-216l-2 -92l4 -74q2 -72 28 -120q28 -48 66 -54q38 -4 58 -4v-30h-460z " />
<glyph unicode="I" horiz-adv-x="514" d="M0 0v28q20 0 58 6q38 4 66 52q26 48 28 122l2 72v92v216v304v194q0 78 -6 110q-6 34 -26 74q-22 38 -72 44l-50 6v22h460v-24l-50 -4q-50 -6 -72 -44q-20 -40 -26 -74q-6 -32 -6 -110v-146v-238v-290v-132l2 -72q2 -74 30 -122q26 -48 64 -52q38 -6 58 -6v-28h-460z" />
<glyph unicode="J" horiz-adv-x="610" d="M-430 0h574h-574zM-6 -544l46 36q48 34 98 96q28 32 52 72q22 40 36 86q8 26 14 76q6 52 10 122q4 72 8 158q4 84 6 174q4 170 6 334q2 162 2 264v108v72q0 86 -6 122q-6 38 -30 80q-24 44 -80 50l-54 6v26h510v-26l-56 -6q-54 -6 -78 -50q-24 -42 -30 -80 q-6 -36 -6 -122v-4q0 -48 2 -160v-250q0 -74 -2 -152v-152q-4 -144 -8 -264q-4 -118 -12 -172q-12 -72 -48 -134q-38 -64 -88 -118q-90 -98 -184 -156l-94 -58q-4 8 -14 22z" />
<glyph unicode="K" horiz-adv-x="1416" d="M0 -4v30q20 0 58 4q38 6 64 54q28 48 30 120l2 74v132v288v238v146q0 78 -6 110q-6 34 -26 74q-22 38 -72 44l-50 4v24h154h76h76h154v-24l-50 -4q-50 -6 -72 -44q-22 -40 -26 -74q-6 -32 -6 -110v-146v-238v-288v-132l2 -74q2 -72 28 -120q28 -48 66 -54q38 -4 58 -4 v-30h-154h-76h-76h-154zM168 486v76q238 240 714 718q12 -14 38 -40q-252 -252 -752 -754zM468 804l108 108l54 -92t132 -220q32 -52 68 -110q34 -56 70 -110q64 -100 124 -182q58 -82 94 -116q30 -30 64 -50q36 -18 70 -32q66 -24 116 -30l50 -6v-22l-96 2t-208 38 q-60 18 -116 50q-54 30 -94 80q-146 230 -436 692zM658 1312v24h154h76h76h154v-24l-62 -8q-60 -10 -88 -30q-34 -28 -74 -58q-42 -32 -118 -116h-76q74 84 106 120q18 21 18 38q0 13 -10 24q-22 24 -90 28z" />
<glyph unicode="L" horiz-adv-x="964" d="M0 0v28q20 0 58 6t64 52q28 48 30 122l2 72v90v216v304q-2 150 -2 192q0 78 -4 112q-6 32 -28 72q-20 40 -70 44l-50 6v22h154h76h76h152v-24l-50 -4q-48 -4 -70 -44t-26 -72q-6 -34 -6 -112v-144v-238q-2 -156 -2 -288v-132q0 -94 2 -280h-76h-76h-154zM98 0v54h672v-54 h-672zM490 0v54l84 6t132 34q68 36 102 98l36 60q8 -2 26 -4q-20 -84 -58 -248h-322z" />
<glyph unicode="M" horiz-adv-x="1826" d="M0 2v28q20 0 82 6q60 4 88 52q22 38 26 94q6 56 6 84v78h54v-80q0 -28 6 -84t26 -94q28 -48 88 -52q62 -4 82 -4v-28h-458zM68 1314v24h154h76h48l38 -88t72 -170h-166q-30 70 -44 104q-14 36 -40 72q-32 46 -84 52zM202 304v998h54v-998h-54zM206 1264q24 10 70 32 q22 10 68 32l38 -84t72 -156q14 -32 62 -136t102 -224q66 -148 122 -272l56 -122q10 -22 30 -64q18 -44 58 -130q-30 -56 -90 -170q-14 34 -44 98q-30 68 -90 202l-40 86t-92 202q-66 142 -130 284t-82 182q-34 72 -72 156zM778 8q184 444 550 1330q14 -12 42 -40 q-184 -442 -550 -1328h-26q-6 12 -16 38zM1176 2v28q20 0 58 6t64 52q28 48 30 120l2 74v90v216q0 152 -2 302v194v254h306v-22l-50 -6q-50 -4 -70 -44q-22 -38 -28 -72q-4 -34 -4 -110q0 -36 -2 -146v-238v-288v-130l2 -74q2 -72 30 -120q26 -46 64 -52t58 -6v-28h-458z " />
<glyph unicode="N" horiz-adv-x="1434" d="M0 -4v28q20 0 82 4q62 6 90 54q22 38 26 96q6 56 6 84v78h56v-80q0 -28 6 -84q4 -58 26 -96q28 -48 90 -52t82 -4v-28h-464zM38 1324v22h156h76h48q66 -78 198 -238q-48 -24 -146 -70q-66 88 -100 138q-34 48 -66 82q-42 44 -104 54zM204 300v1010h56v-1010h-56z M204 1246q16 22 48 68q24 10 74 30l900 -1110v-238h-30q-330 418 -992 1250zM966 1318v28h464v-28q-20 0 -82 -6q-64 -4 -90 -52q-22 -38 -26 -96q-6 -56 -6 -84v-78h-56v80q0 28 -6 84q-4 58 -26 96q-28 48 -90 52t-82 4zM1170 32v1010h56v-1010h-56z" />
<glyph unicode="O" horiz-adv-x="1518" d="M-8 662q0 190 88 350q86 160 248 254q86 50 192 78q100 26 216 26h16q234 -4 402 -96t258 -242q48 -80 72 -174q26 -94 26 -196q0 -192 -86 -354q-84 -162 -244 -256q-88 -50 -194 -76q-94 -24 -200 -24q-18 0 -34 2q-370 12 -564 212q-196 202 -196 496zM128 724 q0 -88 24 -180q24 -90 70 -178q48 -86 114 -154q68 -66 146 -112q144 -86 312 -96q19 -1 38 -1q144 0 266 67q138 76 212 216q70 138 70 297v9q0 90 -24 180q-24 92 -72 178q-88 160 -236 254q-148 92 -310 108q-29 3 -57 3q-57 0 -113 -11q-84 -16 -158 -58 q-140 -76 -212 -216q-70 -138 -70 -297v-9z" />
<glyph unicode="P" horiz-adv-x="922" d="M-4 0v28q20 0 58 6q40 4 66 52q28 50 30 122l2 72v92v218q-2 152 -2 304v194q0 78 -4 112q-6 34 -28 74q-22 38 -72 44l-50 4v24h308v-258v-194v-304v-218l-2 -92l4 -72q2 -72 28 -122q28 -48 66 -52q38 -6 58 -6v-28h-462zM304 1290v56q72 0 216 2l94 -6t190 -74 t112 -192q2 -24 2 -46q0 -98 -56 -182q-68 -102 -186 -140q-112 -34 -259 -34h-17h-18q0 10 2 32h44q46 0 106 16q32 8 64 22t60 38q108 94 108 202t-50 186q-42 66 -96 92t-148 30q-56 0 -168 -2z" />
<glyph unicode="Q" horiz-adv-x="1230" d="M-198 -58l14 10q14 8 38 20q46 22 126 44q53 14 114 14q34 0 70 -4q110 -14 200 -38q88 -24 166 -52q142 -52 262 -94q85 -31 186 -31q42 0 86 5q58 6 108 26t90 44q74 48 114 96l42 48q14 -12 44 -36l-54 -78q-56 -78 -146 -152q-48 -40 -104 -68q-56 -30 -116 -38 q-50 -6 -93 -6h-21q-52 0 -98 8q-86 14 -172 54q-84 40 -198 108q-176 104 -302 134q-67 17 -119 17q-45 0 -79 -13q-60 -24 -92 -44l-30 -18q-12 14 -36 44zM-130 696q0 104 26 200q26 94 74 178q92 152 262 244q162 90 384 90h16q238 -2 406 -96q168 -92 258 -242 q48 -82 74 -176t26 -198q0 -102 -26 -200q-26 -96 -74 -178q-90 -154 -258 -248q-155 -87 -369 -87q-18 0 -37 1q-370 12 -566 216q-196 202 -196 496zM2 734q8 -172 96 -334q90 -162 238 -256q150 -92 312 -108q29 -3 57 -3q57 0 113 11q86 16 160 58q76 40 132 102t92 136 q60 128 60 284v28q-6 172 -96 334q-88 162 -238 256t-310 108q-29 3 -58 3q-58 0 -114 -11q-86 -16 -160 -56q-76 -42 -132 -104q-56 -60 -92 -136q-60 -128 -60 -284v-28z" />
<glyph unicode="R" horiz-adv-x="1354" d="M-2 -6v30q20 0 58 4q40 6 66 54q28 48 30 122l2 72v92v216q-2 152 -2 304v196q0 78 -4 110q-6 34 -28 74q-22 38 -72 44l-50 4v24h308v-256v-146v-240v-290l-2 -132l2 -72q4 -74 30 -122q28 -48 66 -54q38 -4 58 -4v-30h-462zM306 1286v54q72 0 214 2l96 -6 q94 -6 190 -74q94 -66 110 -192q3 -24 3 -47q0 -97 -55 -181q-68 -102 -188 -138q-118 -36 -274 -36h-18q0 12 2 32h44q46 0 106 16q30 8 62 24q34 14 60 38q110 92 110 200t-50 186q-42 66 -96 92q-56 26 -148 30h-168zM506 684l150 30l60 -110q58 -112 134 -238 q52 -86 104 -162q50 -76 90 -114q30 -28 66 -48t70 -32q66 -24 116 -30l50 -6v-22l-96 2q-96 2 -208 36q-60 20 -116 52q-56 30 -96 78q-36 46 -80 118q-44 70 -86 146q-64 114 -112 206z" />
<glyph unicode="S" horiz-adv-x="828" d="M4 266l30 6q4 -24 48 -88t98 -94q56 -32 148 -36q45 -2 75.5 -2t46.5 2q42 4 100 28q56 24 98 76q22 26 36 64t16 86v5q0 80 -58 133q-60 54 -130 106q-86 68 -186 134q-98 68 -172 132q-42 34 -72 68q-28 34 -40 64q-18 54 -18 99q0 48 20 87q40 76 94 120q60 50 144 72 q84 20 164 20q30 2 58 2q60 0 116 -6l82 -10q14 -76 44 -230l-24 -6q-4 20 -42 76q-38 54 -86 82q-48 26 -120 30l-72 2q-60 -6 -106 -26t-78 -68q-30 -42 -32 -90q0 -4 -1 -8q0 -44 21 -88q10 -20 36 -46q26 -28 62 -60q32 -26 70 -56t76 -58q70 -52 130 -94q62 -42 84 -56 q40 -28 96 -82t72 -118q6 -24 6 -58v-14q0 -37 -8 -82q-18 -98 -96 -170q-64 -58 -140 -92q-72 -34 -191 -34h-13q-26 0 -66 2q-42 0 -88 4q-68 2 -124 6l-56 4q-18 86 -52 262z" />
<glyph unicode="T" horiz-adv-x="1308" d="M6 1104q14 80 46 240h302v-54l-72 -2q-74 -4 -122 -30q-48 -28 -88 -84q-38 -56 -40 -76q-10 2 -26 6zM148 1290v54h1014v-54h-1014zM424 -2v28q20 0 58 6q38 4 66 52q28 50 30 122l2 74q0 354 -2 1064h76h78q0 -354 -2 -1064l2 -74q2 -72 30 -122q28 -48 66 -52 q38 -6 58 -6v-28h-154h-78h-76h-154zM956 1292v54h302q16 -82 48 -242q-10 -2 -26 -4q-4 18 -42 76q-40 56 -88 82q-48 28 -122 30z" />
<glyph unicode="U" horiz-adv-x="1312" d="M2 1320v22h468v-24l-50 -4q-52 -4 -74 -44t-26 -74q-6 -34 -6 -114v-64v-106v-252q-2 -140 -2 -246q0 -58 14 -104q12 -46 12 -48q28 -72 102 -150t226 -78q150 0 226 70t104 138q6 20 20 68q14 50 14 104v126v140q0 132 -2 250v152q0 80 -4 114q-6 34 -28 74t-88 44 l-66 4v24h468v-22l-68 -6q-66 -4 -88 -44t-28 -74q-4 -34 -4 -114v-64t2 -98q2 -102 4 -228t2 -222q0 -36 -4 -68t-10 -58q-4 -16 -14 -52q-8 -36 -28 -78q-38 -80 -130 -158q-92 -76 -280 -76t-292 78q-104 76 -154 156q-22 40 -36 74t-18 52q-4 22 -8 52q-6 30 -6 78 q0 96 2 222t4 228v98q2 42 2 64q0 80 -6 114t-28 74q-20 40 -72 44z" />
<glyph unicode="V" horiz-adv-x="1472" d="M2 1322v24h154h76h78h154v-24l-50 -6q-50 -4 -72 -44q-8 -15 -8 -32t8 -36q16 -36 50 -118h-168q-30 70 -44 104q-14 36 -40 74q-32 44 -84 52zM140 1282q24 10 70 30q24 10 70 32l38 -86q36 -84 68 -158q14 -34 60 -140q44 -104 96 -226q24 -52 46 -104q20 -52 40 -98 q38 -86 62 -142l24 -58q10 -22 28 -66q20 -42 58 -130q-32 -56 -94 -168q-14 32 -44 100q-28 68 -86 204l-38 86q-38 88 -88 206q-42 94 -84 192t-72 170q-18 40 -30 68q-12 30 -18 44q-32 74 -68 158zM688 6q192 436 576 1306q18 -6 50 -22q-194 -440 -582 -1322h-26 q-6 12 -18 38zM1094 1322v24h154h36h36h154v-24l-60 -6q-62 -4 -90 -34q-30 -32 -52 -80t-48 -116h-58q4 8 6 16q4 8 6 16q28 64 40 96q12 30 -2 58q-22 40 -72 44zM1164 1086l8 16t6 16q-2 -8 -6 -16q-2 -8 -6 -16h58h-60z" />
<glyph unicode="W" horiz-adv-x="1990" d="M0 1322v24h154h76q26 0 78 -2h154v-24l-50 -4t-72 -44q-8 -15 -8 -32t8 -36q16 -36 50 -120h-168q-30 72 -44 106q-14 36 -40 74q-32 44 -84 50zM138 1282q24 10 70 30q24 10 70 30l38 -84q36 -86 68 -158q14 -34 60 -140q44 -106 98 -228l44 -104t42 -96q36 -88 60 -144 l24 -58q10 -20 28 -64q20 -44 58 -132q-32 -56 -94 -168q-14 34 -42 100q-30 68 -88 204l-38 88q-38 86 -88 206q-22 50 -46 102q-22 54 -44 104q-40 92 -72 166t-42 100q-32 74 -68 160zM514 1320v24h154h76h76h154q2 -8 2 -24l-52 -6q-50 -4 -70 -44q-8 -15 -8 -31.5 t8 -34.5q16 -38 50 -120h-168q-30 70 -44 106q-14 34 -40 72q-32 44 -86 52zM652 1280q24 10 70 30q24 10 70 32l38 -86q36 -84 68 -158q14 -34 60 -140q44 -104 96 -228q24 -52 46 -102q22 -52 40 -98q38 -86 62 -144l24 -56q10 -22 28 -66q20 -44 56 -130 q-30 -56 -92 -170q-16 34 -44 100q-28 68 -86 204l-38 88t-90 206q-22 50 -44 104q-22 52 -44 102q-40 94 -72 168t-44 100q-32 74 -68 158zM688 4l576 1308q16 -6 50 -22q-196 -442 -584 -1324h-26q-6 12 -16 38zM1092 1320v24h154q12 2 36 2q12 0 36 -2h154q0 -8 2 -24 l-62 -4q-60 -6 -88 -34q-32 -32 -54 -80q-22 -50 -48 -118h-58q4 10 8 18q2 8 6 16q28 64 38 94q12 32 -2 60q-22 40 -72 44zM1164 1084h58h-58q4 10 6 18l8 16q-4 -8 -6 -16q-4 -8 -8 -18zM1200 2q192 436 578 1310q16 -8 48 -22l-582 -1326h-26q-6 14 -18 38zM1606 1320 v24h154h36h36h154v-24l-60 -6q-62 -4 -88 -32q-32 -34 -54 -82t-48 -116h-58q4 8 6 16q4 8 6 16q28 64 40 96t-2 58q-22 40 -72 44zM1676 1084l8 16t6 16q-2 -8 -6 -16q-2 -8 -6 -16h58h-60z" />
<glyph unicode="X" horiz-adv-x="1220" d="M0 22l62 6q60 4 88 34q32 32 58 80t68 116h62q-4 -8 -50 -86q-33 -56 -33 -87q0 -12 5 -21q22 -36 70 -38l50 -4v-24h-154h-36h-36h-152q0 8 -2 24zM54 1316v24h154h76h76h154v-24l-52 -4q-52 -2 -72 -40q-6 -10 -6 -22q0 -20 18 -44q28 -36 72 -120q-58 -2 -176 -4 q-42 72 -62 106t-44 70q-32 46 -86 52zM146 42q152 254 458 762q12 -14 36 -44q-152 -254 -458 -762q-8 2 -26 4q-2 14 -10 40zM204 1242q22 14 64 40q22 12 66 40l48 -80q46 -80 88 -148q18 -30 76 -130q60 -98 126 -212q84 -138 152 -256l70 -116q12 -22 36 -62 q26 -40 74 -122q-24 -60 -70 -178q-20 30 -56 92q-38 64 -112 190l-50 82q-48 82 -114 192l-160 268q-82 134 -104 172q-40 70 -88 148zM594 734q110 182 330 548q16 -10 46 -28q-112 -188 -340 -566q-12 16 -36 46zM756 0v24l52 2q52 4 72 40q6 10 6 22q0 21 -20 44 q-28 38 -72 120q58 2 176 6q42 -72 62 -106t46 -72q30 -44 84 -50l52 -8v-24h-152q-26 0 -78 2h-76h-152zM762 1316v24h154h36h34h154v-24l-60 -4q-60 -6 -88 -34q-32 -32 -58 -82q-28 -48 -68 -114h-62q2 8 50 86q33 56 33 87q0 12 -5 21q-22 36 -70 38z" />
<glyph unicode="Y" horiz-adv-x="1100" d="M-2 1326v24h154h78h76h154v-24l-52 -4t-72 -40q-6 -11 -6 -23q0 -21 18 -45q30 -36 74 -120q-60 -2 -178 -4q-42 72 -62 106t-46 72q-32 44 -84 52zM148 1250q22 14 66 40q22 14 66 40l48 -80q48 -78 88 -148q8 -14 36 -60q28 -48 60 -102q40 -66 74 -122l34 -56 q-36 -42 -104 -126l-28 44q-26 46 -62 106q-44 72 -88 146q-42 72 -54 90q-40 68 -88 148zM310 -2v30q20 0 60 4q38 6 64 54q28 50 30 122l2 74v436q50 14 152 44v-480l2 -74q2 -72 30 -122q26 -48 66 -54q38 -4 58 -4v-30h-156h-76h-76h-156zM542 738q110 184 332 552 q16 -8 48 -28q-116 -188 -344 -568q-12 14 -36 44zM710 1326v24h156h36h36h154v-24l-60 -6q-62 -4 -90 -34q-32 -32 -58 -80q-28 -50 -68 -118h-64q4 10 52 88q33 56 33 87q0 13 -5 21q-22 36 -72 38z" />
<glyph unicode="Z" d="M142 -2v30q60 96 178 288q12 20 36 62l70 118q70 116 154 256q66 114 126 214q58 98 78 130q14 24 30 54q18 28 36 58q32 54 58 96l24 42h178v-28l-32 -48t-70 -108l-52 -80q-24 -38 -42 -66q-22 -38 -102 -172q-80 -136 -162 -272q-66 -110 -116 -192l-48 -82 q-38 -64 -114 -190q-20 -36 -62 -108q-56 0 -168 -2zM156 1106l48 240h302v-54l-74 -2q-72 -4 -120 -30q-48 -28 -88 -84t-42 -76q-8 2 -26 6zM194 0v54h874v-54h-874zM208 1292v54h874v-54h-874zM764 -2v54l84 8q84 6 134 32q66 38 102 100l36 60q8 -2 26 -4 q-20 -84 -58 -250h-324z" />
<glyph unicode="a" horiz-adv-x="1222" d="M-2 4v18l44 4q46 2 66 24q24 24 40 60t36 86h42l-4 -12q-4 -6 -6 -12q-20 -46 -28 -70t2 -44q16 -30 52 -32l38 -4v-18h-114h-28h-26h-114zM116 44q144 328 434 984h20q4 -8 12 -28q-144 -324 -430 -972q-12 6 -36 16zM184 196h44q-4 -6 -6 -12t-6 -12q2 6 6 12l4 12h-42 zM266 350l2 20v20h490v-40h-492zM500 904q22 42 70 124q10 -24 30 -74q22 -50 66 -152l40 -94q40 -92 88 -204q40 -90 74 -168q32 -78 44 -104q24 -54 50 -118l28 -64q-18 -6 -54 -22q-16 -8 -52 -22l-26 62q-28 64 -52 118q-10 24 -44 104q-34 78 -72 168q-48 112 -88 206 l-40 94q-6 16 -20 48t-42 98zM748 22l38 4q38 2 54 32q12 22 0 50t-38 88h124q24 -52 34 -78t30 -54q24 -34 62 -38l40 -6v-16h-114h-58h-56h-114q0 6 -2 18z" />
<glyph unicode="b" horiz-adv-x="738" d="M-2 0v22q14 0 44 4t50 40q20 38 22 94l2 56v70v168v232v150q0 60 -4 86q-4 24 -22 56q-16 30 -54 34l-38 4v18h236v-198v-112q-2 -86 -2 -184v-222v-102v-216h-234zM212 0v42h24h94l58 2q58 4 110 28q38 20 60 46q24 26 38 56q19 43 19 89q0 11 -1 23q-6 56 -20 90 q-36 76 -102 108t-128 34q-24 0 -68 -2v22h136l74 -4q74 -6 144 -56q72 -52 84 -160q2 -18 2 -36v-7q0 -80 -42 -141q-20 -32 -48 -54q-26 -22 -58 -38q-44 -20 -96 -30t-114 -12h-142h-24zM230 990v42q56 2 166 2l72 -4t146 -56t86 -148q2 -17 2 -34q0 -76 -44 -142 q-52 -78 -142 -106q-86 -26 -196 -26h-16h-14q0 8 2 24l74 4q76 4 136 54q82 72 82 154q0 85 -38 144q-32 50 -74 70t-114 24q-42 0 -128 -2z" />
<glyph unicode="c" d="M4 504q0 86 24 168q46 154 188 250q70 46 140 68t134 28q46 6 88 6q62 0 112 -12l80 -20q2 -18 4 -52l-66 24q-52 17 -121 17q-19 0 -39 -1q-52 -2 -108 -20q-54 -18 -108 -58q-62 -46 -100 -92q-40 -46 -64 -92q-42 -86 -44 -166q-1 -27 -1 -52q0 -50 3 -94 q2 -52 20 -104q20 -50 50 -96q58 -88 152 -144q94 -58 202 -58q168 0 228 20l60 20q-6 -18 -20 -54l-82 -14q-80 -14 -240 -14q-158 2 -296 110q-140 110 -178 278q-18 78 -18 154zM548 4l82 2q84 4 128 28q52 28 78 74l26 46q8 0 20 -4q-12 -52 -36 -154l-88 -18 q-74 -15 -167 -15q-21 0 -43 1v40zM588 982q0 14 4 40q42 -2 136 -10l94 -8q12 -60 34 -178q-6 0 -20 -2q0 14 -30 56t-66 64q-36 20 -94 28z" />
<glyph unicode="d" horiz-adv-x="978" d="M0 2v22q14 0 44 4t50 40t22 92l2 56v100v222v182q-2 84 -2 110q0 60 -4 86q-4 24 -20 54t-54 34l-38 4v18h234v-196v-110v-182v-222l-2 -100q0 -72 2 -214h-234zM186 2v40l32 -2q11 -1 36 -1q50 0 158 3q220 6 324 138q98 129 98 300v14q-4 212 -94 326q-90 116 -216 144 q-105 24 -202 24h-28l-108 -4v42h90h84h102q64 0 120 -14q56 -16 106 -38q170 -80 240 -246q46 -108 46 -216q0 -60 -14 -122q-54 -226 -194 -308q-140 -80 -298 -80h-220h-62z" />
<glyph unicode="e" d="M-2 0v22q14 0 44 4t50 40q20 38 22 94l2 54v102q0 100 -2 220v182v110q0 60 -4 86q-4 24 -20 54t-52 34l-34 4v18h228v-18v-58v-120v-110v-182v-220v-102v-192q0 -8 -2 -22h-232zM-2 -2v22q14 0 44 4t50 40q20 38 22 92l2 56v70v164q-2 116 -2 232v148q0 60 -4 84 q-4 26 -20 56t-54 34l-38 4v18h174v-1024h-174zM72 0v42h514v-42h-514zM80 982v42h506v-42h-506zM114 524v42h472v-42h-472zM368 982v42h228q12 -60 36 -184q-6 0 -20 -2q-2 14 -32 56q-28 44 -66 64q-36 20 -92 22zM372 0v42l64 4q64 6 102 26q50 28 78 76l26 46 q8 -2 20 -4q-14 -64 -44 -188q-82 -2 -246 -2zM372 524v42h214v-160h-22q0 14 -4 44q-4 28 -40 48q-38 22 -92 24z" />
<glyph unicode="f" d="M-4 0v22q16 0 46 4q28 4 48 40q22 38 24 94l2 54l-2 70v166v232v148q0 60 -4 84q-4 26 -20 56t-56 34l-38 4v18h236v-196q0 -32 -2 -148v-232v-166v-70l2 -54q2 -56 22 -94q20 -36 50 -40t44 -4v-22h-352zM80 984v42h506v-42h-506zM116 524v42h470v-42h-470zM368 984v42 h230q12 -62 36 -184q-6 -2 -20 -4q-2 16 -32 58t-66 64q-38 20 -92 22zM372 524v42h214v-160h-20q0 14 -6 44q-4 30 -40 50t-92 22z" />
<glyph unicode="g" d="M2 488q0 88 26 172q44 156 190 252q70 46 142 68q70 24 134 30q48 6 90 6q62 0 112 -12l82 -20q2 -18 4 -52l-66 22q-53 19 -125 19q-18 0 -37 -1q-52 -4 -108 -22t-112 -58q-114 -86 -158 -174q-42 -88 -50 -168q-4 -33 -4 -64v-20q2 -40 4 -76q2 -52 22 -104 q18 -52 50 -100q58 -86 152 -146q96 -58 206 -58q60 0 100 10t64 24q46 28 52 60l6 30q8 -48 26 -142l-70 -12q-62 -10 -190 -10h-44q-158 0 -300 110q-140 112 -180 282q-18 78 -18 154zM594 974q0 12 4 40q42 -2 138 -10t96 -10q10 -58 34 -178q-6 -2 -20 -4q-2 16 -32 58 q-30 44 -66 64t-96 30zM662 382v16h118h58h58h118v-18l-38 -4q-38 -2 -54 -32q-18 -30 -22 -56t-4 -86q0 -20 2 -110v-92q-34 -24 -76 -32l-42 -8v28v66v92v56q0 60 -4 86t-22 56q-16 30 -54 34z" />
<glyph unicode="h" horiz-adv-x="1192" d="M-4 -2v22q16 0 46 4q28 4 50 40q20 38 22 94l2 54v72v166q-2 116 -2 232v150q0 58 -4 84t-20 56t-54 34l-40 4v18h354v-18l-38 -4t-56 -34q-16 -30 -20 -56t-4 -84v-112v-184v-222v-102v-54q2 -56 24 -94q20 -36 50 -40q28 -4 44 -4v-22h-354zM214 526v40h756v-40h-756z M838 0v22q16 0 46 4q28 4 48 40q22 38 24 94l2 56v70q-2 70 -2 166v232v150q0 60 -4 84q-4 26 -20 56t-56 34l-38 4v18h354v-18l-38 -4t-56 -34q-16 -30 -20 -56q-4 -24 -4 -84v-112v-184v-220l-2 -102l2 -56t24 -94q20 -36 50 -40q28 -4 44 -4v-22h-354z" />
<glyph unicode="i" d="M0 2v22q16 0 44 4q30 4 50 40q22 38 24 94v56v102v220v184v112q0 58 -4 84t-20 56q-18 30 -56 34l-38 4v18h352q2 -6 2 -18l-40 -4q-38 -4 -54 -34t-20 -56t-4 -84v-150t-2 -232v-166v-70l2 -56t22 -94q22 -36 50 -40q30 -4 46 -4v-22h-354z" />
<glyph unicode="j" horiz-adv-x="516" d="M-12 -568l40 30q38 28 82 82q22 26 44 60q20 34 30 74q8 22 12 66q6 42 10 102q6 112 10 260t6 284q2 72 2 136v108v2v92v60q0 72 -6 104q-4 32 -24 68q-20 38 -68 42l-46 4v22h432v-22l-46 -4q-48 -4 -68 -42q-20 -36 -24 -68q-6 -32 -6 -104v-4q0 -40 2 -136v-212 q0 -62 -2 -128v-130q-2 -122 -6 -222q-4 -102 -12 -148q-8 -60 -40 -114t-74 -100q-76 -84 -156 -132l-80 -50q-4 6 -12 20z" />
<glyph unicode="k" d="M-4 -2v22q14 0 44 4t50 40q20 38 22 94l2 56v70v164q0 118 -2 234v148q0 58 -4 84t-20 56t-54 34l-38 4v18h118h58h58h118v-18l-38 -4q-40 -4 -56 -34t-20 -56t-4 -84v-148v-234v-164l-2 -70l2 -56t24 -94q20 -36 48 -40q30 -4 46 -4v-22h-118h-58h-58h-118zM124 378v58 q182 184 546 548q10 -8 30 -28q-192 -194 -576 -578zM354 622q28 26 82 82l42 -70q42 -72 100 -168q72 -118 152 -238q78 -120 120 -160q66 -62 148 -76l82 -14v-16l-72 2q-74 0 -160 28q-44 14 -88 38q-42 24 -72 60q-112 178 -334 532zM498 1010v18h118h58h58h118v-18 l-46 -6t-68 -24q-26 -20 -56 -44q-32 -24 -92 -88h-58q58 64 82 92t6 48q-18 18 -68 20z" />
<glyph unicode="l" d="M0 -4v22q14 0 44 4q28 4 50 42q20 36 22 92l2 56v70v166q-2 116 -2 232v148q0 60 -4 86t-20 56t-54 34l-38 2v18h116h60h58h118v-18l-38 -4q-38 -2 -56 -32q-16 -30 -20 -56t-4 -86v-110v-184v-220l-2 -102q2 -72 2 -216h-58h-60h-116zM74 0v40h516v-40h-516zM376 0v40 l64 6q64 4 102 26q52 28 78 74l28 48q6 -2 20 -6q-16 -62 -44 -188h-248z" />
<glyph unicode="m" horiz-adv-x="1290" d="M-2 -6v22q16 0 64 4q50 4 70 42q18 30 22 74t4 66v62h44v-64q0 -20 4 -66q4 -44 20 -74q22 -38 70 -40q48 -4 64 -4v-22h-362zM52 1030v18h122h60h38l30 -70t56 -134h-130q-24 54 -36 82q-10 28 -32 58q-24 34 -66 40zM158 232v786h42v-786h-42zM162 988q18 10 54 26 q18 8 54 26l30 -66t56 -124q12 -26 50 -108q36 -82 80 -176q52 -116 96 -214l44 -96q8 -18 24 -52q14 -34 46 -100q-24 -46 -70 -134q-12 26 -36 76q-24 54 -72 160l-30 68q-32 68 -74 158q-50 114 -102 224q-50 112 -64 144q-26 56 -56 122zM612 -2q144 350 434 1050 l32 -32q-144 -350 -432 -1048h-20q-6 10 -14 30zM926 -6v22q16 0 46 4t50 42q22 38 24 96l2 56v72q-2 74 -2 170v238v152v202h242v-18l-40 -4t-56 -34q-18 -32 -22 -58t-4 -88v-152v-238v-170v-72l2 -56q0 -58 22 -96t52 -42t44 -4v-22h-360z" />
<glyph unicode="n" horiz-adv-x="1086" d="M-2 0v22q14 0 62 4q46 4 68 40q16 30 20 72q4 44 4 64v60h42v-62q0 -20 4 -64q4 -42 20 -72q22 -36 68 -40q48 -2 62 -2v-22h-350zM26 1008v18h118h58h36q50 -60 152 -182q-38 -18 -112 -54q-50 68 -76 106q-26 36 -50 62q-32 34 -80 42zM152 232v766h42v-766h-42z M152 950q12 16 36 50q18 8 56 24q228 -282 682 -844v-178h-22q-250 316 -752 948zM730 1004v22h352v-22q-16 0 -62 -4q-48 -4 -68 -40q-16 -30 -20 -72q-4 -44 -4 -64v-60h-44v60q0 22 -4 64q-4 44 -20 74q-20 36 -68 38q-46 4 -62 4zM886 28v766h40v-766h-40z" />
<glyph unicode="o" horiz-adv-x="1190" d="M0 524q0 230 158 396q152 160 419 160h7h12q284 -4 440 -164q156 -162 156 -392q0 -80 -20 -156q-20 -74 -58 -140q-70 -120 -202 -194q-120 -66 -286 -66h-30q-290 10 -444 168q-152 158 -152 388zM104 574q2 -70 20 -142t56 -140t90 -120q52 -54 114 -90 q114 -68 244 -76q12 -1 25 -1q118 0 215 53q110 60 166 172q56 106 56 231v9q0 70 -20 142q-18 70 -56 138q-36 68 -90 122q-52 52 -112 90q-114 66 -246 74q-15 1 -30 1q-113 0 -210 -53q-108 -60 -166 -170q-56 -112 -56 -240z" />
<glyph unicode="p" d="M0 0v20q16 0 44 4q30 6 50 42q22 36 24 92v56v70v166v232v148q0 60 -4 84q-4 26 -20 56q-18 30 -56 34l-38 4v18h234q0 -66 2 -196q0 -26 -2 -112v-182v-220v-102l2 -56t22 -92t50 -42q30 -4 44 -4v-20h-352zM234 984v42q56 0 164 2l74 -6q72 -4 144 -54q74 -52 86 -148 q2 -18 2 -36q0 -74 -44 -138q-52 -78 -142 -106q-84 -26 -194 -26h-16h-14q0 8 2 24l74 4t134 54q84 72 84 154q0 79 -38 142q-32 50 -74 70t-114 24q-42 0 -128 -2z" />
<glyph unicode="q" d="M-46 -46l78 38q56 28 134 28q28 0 60 -4q152 -20 256 -62t198 -72q52 -16 104 -24q26 -3 54.5 -3t59.5 3q42 6 80 20q36 14 66 34q56 36 88 70l30 36q10 -8 34 -26l-42 -58q-40 -58 -108 -114q-36 -28 -78 -52q-42 -22 -88 -28q-44 -4 -82 -4q-76 0 -134 20 q-86 30 -218 108q-130 76 -224 100q-50 12 -89 12q-35 0 -61 -10q-44 -18 -68 -32l-22 -14q-10 12 -28 34zM-24 528q0 232 160 398q156 164 430 164q6 0 12 -2q286 -4 444 -166q156 -162 156 -394q0 -80 -20 -156t-58 -142q-70 -122 -204 -196q-122 -66 -290 -66h-28 q-292 10 -446 168q-156 160 -156 392zM82 558q6 -136 76 -262q36 -70 90 -122q52 -54 114 -90q116 -68 246 -76q16 -1 31 -1q114 0 211 53q60 32 104 80t72 108q48 102 48 227v19q-6 136 -76 262q-38 70 -90 122q-54 54 -116 90q-114 68 -246 76q-16 1 -31 1 q-114 0 -211 -53q-58 -32 -102 -80t-72 -108q-49 -99 -49 -219q0 -13 1 -27z" />
<glyph unicode="r" d="M2 -10v22q16 0 44 4q30 4 50 42q22 38 24 94l2 56v70q0 72 -2 168v236v150q0 58 -4 84t-20 58q-18 30 -56 34l-38 4v18q60 -10 101 -10q17 0 31 2q46 8 104 8q0 -66 2 -198q0 -28 -2 -114v-184v-224v-102l2 -56t22 -94q22 -38 50 -42q30 -4 46 -4v-22h-356zM238 986v44 h166l74 -4t146 -56q74 -52 86 -150q2 -18 2 -35q0 -75 -42 -139q-54 -80 -144 -108q-92 -28 -212 -28h-14v26l76 4q74 2 136 54q82 71 82 152v8q-2 84 -38 140q-32 50 -74 70t-114 24q-44 0 -130 -2zM394 522q38 8 116 24l44 -84q46 -86 106 -186q38 -66 78 -124t72 -88 q66 -62 148 -76l84 -14v-18l-74 2t-160 30q-46 14 -90 38t-74 62q-28 34 -62 90q-34 54 -66 112q-50 88 -86 160z" />
<glyph unicode="s" horiz-adv-x="650" d="M2 196q8 0 22 4q2 -18 38 -68q34 -50 76 -74q44 -24 114 -28q35 -1 58.5 -1t35.5 1q50 6 122 48q70 44 72 150v5q0 61 -46 103t-98 82q-68 52 -146 104q-76 52 -134 100q-32 28 -54 54q-24 26 -32 50q-14 41 -14 76q0 37 16 68q30 58 74 94q46 38 110 54q66 16 128 16 q22 2 44 2q48 0 90 -6l64 -6q12 -60 34 -180q-6 0 -20 -4q0 16 -30 60q-32 42 -68 62q-36 22 -92 24l-56 2q-48 -6 -82 -20q-36 -16 -62 -54q-22 -32 -24 -70q0 -4 -1 -7q0 -32 17 -65q8 -16 28 -38q20 -20 48 -44q70 -62 162 -126q90 -62 116 -80q32 -22 74 -64 q44 -40 58 -92q4 -18 4 -46q0 -30 -8 -72q-12 -76 -74 -132q-48 -44 -108 -72q-58 -26 -158 -26h-52q-32 2 -68 4q-50 2 -94 6l-44 2q-14 68 -40 204z" />
<glyph unicode="t" d="M0 848q12 62 36 184h232v-40l-56 -2q-56 -4 -94 -24q-36 -20 -66 -64q-30 -42 -32 -58q-6 2 -20 4zM110 992v40h776v-40h-776zM322 2v22q14 0 44 4t50 40q20 38 22 94l2 56v814h58h58v-814l2 -56q0 -56 22 -94q20 -36 50 -40t44 -4v-22h-118h-58h-58h-118zM728 992v42 h232l36 -186q-8 0 -20 -4q-2 16 -32 58q-30 44 -66 64q-38 22 -94 24z" />
<glyph unicode="u" horiz-adv-x="994" d="M2 1008v18h352v-18l-38 -4t-54 -34q-18 -30 -22 -56t-4 -84v-50v-78v-192v-184q0 -44 10 -78l10 -36q20 -54 76 -114q56 -58 170 -58q112 0 170 52t78 104q6 16 16 52q10 38 10 78v184v192v78v50q0 58 -4 84t-22 56q-16 30 -66 34l-50 4v18h352v-18l-50 -4t-66 -34 t-20 -56t-4 -84v-48v-74q2 -78 4 -172q2 -96 2 -168q0 -28 -4 -52q-2 -22 -8 -42q-2 -14 -8 -40q-8 -28 -22 -60q-30 -60 -98 -118q-70 -56 -212 -56t-220 58t-114 118q-18 30 -28 54q-10 26 -14 40q-2 16 -6 38q-4 24 -4 60v168q2 94 4 172v74q2 32 2 48q0 58 -4 84t-22 56 q-16 30 -54 34z" />
<glyph unicode="v" horiz-adv-x="1134" d="M2 1012v18h118q20 -2 60 -2h58h118q0 -6 2 -18l-40 -4q-38 -4 -54 -34q-12 -22 0 -52q12 -28 38 -92h-128q-24 54 -36 82q-10 28 -30 56q-24 34 -64 40zM108 980l54 24l54 24l28 -66q30 -66 54 -122q12 -32 60 -142q48 -112 96 -222q38 -92 68 -160l28 -66q8 -18 22 -50 q14 -34 44 -102q-24 -42 -74 -130q-10 26 -32 78l-66 156l-30 68q-28 68 -68 158q-48 112 -96 222t-60 142q-26 56 -54 122zM530 -2q148 336 444 1006q12 -6 38 -18q-150 -338 -448 -1018h-22zM842 1010v18h118h28h28h118v-18l-46 -4q-48 -4 -68 -26q-24 -24 -42 -62 q-16 -36 -36 -90h-44q2 8 4 14t6 12q20 50 30 74q8 24 -2 44q-18 30 -56 34zM896 828q4 8 6 14t6 12q-4 -6 -6 -12t-4 -14h44h-46z" />
<glyph unicode="w" horiz-adv-x="1526" d="M-2 1010v18h120h58h60h118v-20l-38 -2q-40 -4 -56 -36q-12 -22 0 -50q12 -30 40 -92h-130q-24 54 -34 80q-12 28 -32 56q-24 36 -64 40zM106 978l54 24l54 24l28 -66q28 -64 52 -122q14 -30 62 -142q46 -110 94 -222q40 -92 68 -160l30 -66q6 -18 20 -50q16 -34 44 -102 q-24 -42 -72 -130q-10 26 -32 78t-68 156l-28 68q-30 68 -68 158q-50 112 -96 222q-48 112 -62 142q-24 58 -52 122zM394 1008v18h118h60h58h118q2 -6 2 -18l-40 -4q-38 -4 -54 -34q-12 -24 0 -52t38 -92h-128q-24 54 -36 82q-10 28 -30 56q-24 34 -66 40zM500 978l54 24 q18 8 54 22l28 -64q30 -66 54 -122q10 -26 46 -108q34 -82 74 -174q50 -116 90 -212l42 -98q8 -16 22 -50t44 -100q-24 -44 -72 -130q-12 26 -34 76q-22 52 -66 158l-30 66q-28 68 -68 160q-48 110 -96 222q-48 110 -62 142q-24 56 -52 122zM528 -4q148 336 444 1006 q12 -6 38 -16l-450 -1020h-20zM840 1008v20h118h28h28h118v-20l-46 -2q-48 -4 -68 -26q-26 -26 -42 -64q-16 -36 -36 -88h-44l4 12l4 12q22 50 32 74q8 24 -4 44q-16 32 -54 36zM894 828q2 6 6 12l4 12l-4 -12l-4 -12h44h-46zM922 -6l444 1008q12 -6 38 -18 q-150 -340 -448 -1018h-20q-4 10 -14 28zM1234 1008v18h120h26h28h120v-18l-48 -4q-46 -4 -68 -26q-24 -24 -40 -62q-18 -38 -38 -90h-44q2 8 6 14l4 12q22 48 30 72q8 26 -2 46q-16 30 -56 34zM1288 826q4 8 6 14q4 6 6 12l-4 -12q-4 -6 -6 -14h44h-46z" />
<glyph unicode="x" horiz-adv-x="930" d="M2 2v18l46 4t66 24q24 26 46 62q20 38 50 90h48q-2 -8 -38 -66q-26 -43 -26 -68q0 -10 4 -16q16 -26 54 -28l38 -2v-18h-118h-26h-28h-116zM42 1008v18h116h58h58h118v-18l-40 -4q-40 -2 -54 -30q-12 -22 10 -50q20 -28 54 -92q-44 -2 -134 -4q-32 54 -48 80 q-14 28 -34 56q-24 34 -64 38zM112 34q116 194 350 582q8 -12 28 -34q-118 -192 -350 -580q-6 0 -20 2q-2 10 -8 30zM156 950q16 10 50 30l48 30l38 -60q36 -60 66 -112q14 -24 60 -98q44 -76 96 -162q62 -106 116 -196l54 -90q8 -16 26 -46q20 -32 56 -94q-18 -46 -54 -136 q-14 24 -42 70q-28 50 -86 146l-54 90q-52 90 -116 194q-52 88 -96 162q-46 76 -60 98q-30 54 -66 114zM454 562l252 420q12 -8 36 -22q-88 -144 -260 -432q-10 12 -28 34zM576 2v18l40 2q40 4 56 32q12 22 -10 50t-56 92q46 0 134 4q34 -56 48 -82q16 -26 36 -54 q22 -34 64 -40l40 -4v-18h-118h-58h-58h-118zM582 1008v18h118h26h28h116q2 -6 2 -18l-48 -4q-46 -4 -66 -26q-24 -24 -44 -62q-22 -36 -52 -88h-48q2 6 38 66q26 43 26 67q0 9 -4 15q-16 28 -54 30z" />
<glyph unicode="y" horiz-adv-x="832" d="M2 1004v16h116h58h58h118v-18l-40 -2q-40 -4 -54 -30q-14 -24 8 -52t56 -92q-44 0 -134 -2q-32 54 -48 80q-14 26 -34 54q-24 34 -64 40zM116 946q16 10 50 30l48 30l38 -60q36 -60 66 -112q8 -14 38 -62q28 -48 58 -98q22 -40 40 -70l18 -30q-26 -30 -78 -94l-20 34 q-22 34 -48 78q-34 56 -66 112q-34 54 -42 68q-30 52 -66 114zM238 -4v22q16 0 44 4q30 4 50 40q22 38 22 94l2 54v332q38 12 116 32v-364l2 -54q0 -56 22 -94q20 -36 50 -40q28 -4 44 -4v-22h-118h-58h-58h-118zM414 558q84 140 252 418q12 -6 36 -20q-88 -144 -260 -432 q-10 10 -28 34zM542 1002v18h118h26h28h116v-18l-46 -4t-66 -24q-24 -26 -46 -62q-20 -38 -50 -90h-48q2 8 38 68q26 42 26 66q0 9 -4 16q-16 26 -54 28z" />
<glyph unicode="z" d="M0 -2v22q46 74 136 220q10 16 28 46l54 90q52 92 116 196q52 88 96 162q44 76 58 100q32 52 72 120l42 70h136v-22l-26 -36q-24 -36 -54 -82q-20 -32 -38 -62q-20 -28 -32 -50q-14 -24 -58 -98q-46 -74 -98 -162q-62 -106 -116 -196l-54 -90q-28 -48 -86 -144 q-16 -28 -48 -82q-42 0 -128 -2zM12 840q12 62 36 184h230v-42l-56 -2t-92 -22t-66 -64q-30 -42 -32 -58q-8 2 -20 4zM40 0v42h664v-42h-664zM52 982v42h664v-42h-664zM474 -2v42l64 6q64 4 102 24q50 28 78 76l26 46q6 -2 20 -4q-14 -62 -44 -188q-82 0 -246 -2z" />
<glyph unicode="&#x2000;" horiz-adv-x="704" />
<glyph unicode="&#x2001;" horiz-adv-x="1408" />
<glyph unicode="&#x2002;" horiz-adv-x="704" />
<glyph unicode="&#x2003;" horiz-adv-x="1408" />
<glyph unicode="&#x2004;" horiz-adv-x="469" />
<glyph unicode="&#x2005;" horiz-adv-x="352" />
<glyph unicode="&#x2006;" horiz-adv-x="234" />
<glyph unicode="&#x2007;" horiz-adv-x="234" />
<glyph unicode="&#x2008;" horiz-adv-x="176" />
<glyph unicode="&#x2009;" horiz-adv-x="281" />
<glyph unicode="&#x200a;" horiz-adv-x="78" />
<glyph unicode="&#x202f;" horiz-adv-x="281" />
<glyph unicode="&#x205f;" horiz-adv-x="352" />
<glyph unicode="&#x25fc;" horiz-adv-x="1030" d="M0 0v1030h1030v-1030h-1030z" />
</font>
</defs>
</svg>
